<svg width="73" height="72" viewBox="0 0 73 72" fill="none" xmlns="http://www.w3.org/2000/svg">
<rect x="0.833252" y="0.5" width="71" height="71" rx="11.5" fill="#141414"/>
<rect x="0.833252" y="0.5" width="71" height="71" rx="11.5" stroke="#1F1F1F"/>
<g clip-path="url(#clip0_184_874)">
<g filter="url(#filter0_b_184_874)">
<mask id="path-2-inside-1_184_874" fill="white">
<path fill-rule="evenodd" clip-rule="evenodd" d="M35.3467 26.6882H37.7196C37.7196 26.3159 37.7223 25.9517 37.725 25.5925C37.7303 24.8887 37.7354 24.204 37.7196 23.514C37.6956 22.8911 37.1923 22.4359 36.5931 22.4C35.9939 22.376 35.3947 22.7953 35.3587 23.3942C35.3252 24.1557 35.3327 24.9172 35.3402 25.6869C35.3435 26.0189 35.3467 26.3525 35.3467 26.6882ZM19.2287 38.3833C18.8561 39.6245 18.4844 40.8627 18.5332 42.188C18.5332 42.2679 18.5318 42.3477 18.5305 42.4276C18.5278 42.5873 18.5252 42.747 18.5332 42.9067C18.7968 47.0751 22.7635 49.7702 26.7302 48.4526C28.4919 47.8657 29.7502 46.6799 30.4812 44.9789C31.1523 43.4338 32.2309 42.2958 33.8128 41.7328C35.4186 41.1579 37.0844 41.1699 38.7143 41.5652C40.4999 42.0083 41.6503 43.2181 42.3933 44.8831C43.6277 47.674 46.7196 49.2671 49.5598 48.6083C52.9752 47.8178 55.2282 44.2363 54.3294 40.8465C53.5505 37.8759 52.7116 34.9292 51.7768 32.0065C50.3148 27.4309 44.4306 25.5982 40.8474 28.8802C40.7036 29.012 40.4519 29.0958 40.2602 29.0958C37.7435 29.1078 35.2269 29.1078 32.7103 29.0958C32.4945 29.0958 32.2309 29.012 32.0751 28.8682C28.396 25.5383 22.38 27.4907 21.0139 32.2461C20.885 32.6863 20.7554 33.1265 20.6259 33.5667C20.2371 34.8873 19.8484 36.2079 19.4799 37.5285C19.3995 37.8143 19.314 38.0989 19.2287 38.3833ZM43.433 36.2171C43.5667 36.0877 43.7129 35.9461 43.8794 35.7797C43.7517 35.6663 43.6297 35.5641 43.514 35.4672C43.3364 35.3184 43.1736 35.1821 43.0285 35.037C42.4173 34.4261 42.3814 33.7074 42.8967 33.1924C43.412 32.6773 44.131 32.7372 44.7422 33.3481C44.9414 33.5471 45.133 33.7537 45.3647 34.0034C45.4257 34.0692 45.4896 34.138 45.5571 34.2105C45.653 34.1041 45.7436 34.0007 45.8314 33.9006C46.0401 33.6627 46.2331 33.4426 46.4439 33.2403C46.9832 32.7252 47.6783 32.7132 48.1577 33.1804C48.661 33.6715 48.649 34.3902 48.1217 34.9412C47.9206 35.151 47.7003 35.3416 47.4375 35.569C47.3403 35.6532 47.2371 35.7425 47.127 35.8396C47.2771 35.9798 47.4193 36.1045 47.5545 36.223C47.754 36.3979 47.9383 36.5594 48.1097 36.7379C48.649 37.3009 48.649 38.0196 48.1577 38.4987C47.6543 38.9898 46.9593 38.9659 46.408 38.4149C46.2292 38.2284 46.0655 38.0268 45.8842 37.8035C45.7861 37.6826 45.6828 37.5553 45.5691 37.4207C45.4282 37.5704 45.305 37.7055 45.1914 37.8302C44.9958 38.0448 44.8283 38.2287 44.6463 38.4029C44.0711 38.9539 43.388 38.9898 42.8847 38.4987C42.3694 37.9956 42.3933 37.277 42.9566 36.69C43.1058 36.5341 43.2588 36.3859 43.433 36.2171ZM26.4971 34.6509C26.6364 34.6523 26.7809 34.6537 26.934 34.6537C26.934 34.5309 26.9331 34.4164 26.9323 34.3078C26.9301 34.0031 26.9283 33.7447 26.9459 33.4799C26.9699 32.7612 27.4732 32.2461 28.1443 32.2581C28.8035 32.2581 29.3068 32.7731 29.3308 33.5038C29.3386 33.7386 29.3362 33.9733 29.3336 34.2281C29.3322 34.3634 29.3308 34.5042 29.3308 34.6537C29.4694 34.6537 29.6038 34.6523 29.7355 34.651C29.9909 34.6483 30.2361 34.6458 30.4812 34.6537C31.2003 34.6777 31.7156 35.1808 31.7156 35.8396C31.7156 36.5103 31.2003 37.0134 30.4812 37.0374C30.2482 37.0452 30.0202 37.0428 29.7646 37.0403C29.6258 37.0389 29.479 37.0374 29.3188 37.0374C29.3188 37.1729 29.3202 37.3028 29.3216 37.429C29.3242 37.6708 29.3267 37.8991 29.3188 38.1274C29.3068 38.906 28.8394 39.4211 28.1443 39.433C27.4373 39.445 26.9459 38.918 26.934 38.1034V37.0374C26.7804 37.0374 26.6355 37.0388 26.4962 37.0402C26.2332 37.0428 25.9904 37.0452 25.7475 37.0374C25.0525 37.0015 24.5491 36.5103 24.5372 35.8755C24.5132 35.2167 25.0165 34.6897 25.7356 34.6537C25.9867 34.6459 26.2327 34.6483 26.4971 34.6509Z"/>
</mask>
<path fill-rule="evenodd" clip-rule="evenodd" d="M35.3467 26.6882H37.7196C37.7196 26.3159 37.7223 25.9517 37.725 25.5925C37.7303 24.8887 37.7354 24.204 37.7196 23.514C37.6956 22.8911 37.1923 22.4359 36.5931 22.4C35.9939 22.376 35.3947 22.7953 35.3587 23.3942C35.3252 24.1557 35.3327 24.9172 35.3402 25.6869C35.3435 26.0189 35.3467 26.3525 35.3467 26.6882ZM19.2287 38.3833C18.8561 39.6245 18.4844 40.8627 18.5332 42.188C18.5332 42.2679 18.5318 42.3477 18.5305 42.4276C18.5278 42.5873 18.5252 42.747 18.5332 42.9067C18.7968 47.0751 22.7635 49.7702 26.7302 48.4526C28.4919 47.8657 29.7502 46.6799 30.4812 44.9789C31.1523 43.4338 32.2309 42.2958 33.8128 41.7328C35.4186 41.1579 37.0844 41.1699 38.7143 41.5652C40.4999 42.0083 41.6503 43.2181 42.3933 44.8831C43.6277 47.674 46.7196 49.2671 49.5598 48.6083C52.9752 47.8178 55.2282 44.2363 54.3294 40.8465C53.5505 37.8759 52.7116 34.9292 51.7768 32.0065C50.3148 27.4309 44.4306 25.5982 40.8474 28.8802C40.7036 29.012 40.4519 29.0958 40.2602 29.0958C37.7435 29.1078 35.2269 29.1078 32.7103 29.0958C32.4945 29.0958 32.2309 29.012 32.0751 28.8682C28.396 25.5383 22.38 27.4907 21.0139 32.2461C20.885 32.6863 20.7554 33.1265 20.6259 33.5667C20.2371 34.8873 19.8484 36.2079 19.4799 37.5285C19.3995 37.8143 19.314 38.0989 19.2287 38.3833ZM43.433 36.2171C43.5667 36.0877 43.7129 35.9461 43.8794 35.7797C43.7517 35.6663 43.6297 35.5641 43.514 35.4672C43.3364 35.3184 43.1736 35.1821 43.0285 35.037C42.4173 34.4261 42.3814 33.7074 42.8967 33.1924C43.412 32.6773 44.131 32.7372 44.7422 33.3481C44.9414 33.5471 45.133 33.7537 45.3647 34.0034C45.4257 34.0692 45.4896 34.138 45.5571 34.2105C45.653 34.1041 45.7436 34.0007 45.8314 33.9006C46.0401 33.6627 46.2331 33.4426 46.4439 33.2403C46.9832 32.7252 47.6783 32.7132 48.1577 33.1804C48.661 33.6715 48.649 34.3902 48.1217 34.9412C47.9206 35.151 47.7003 35.3416 47.4375 35.569C47.3403 35.6532 47.2371 35.7425 47.127 35.8396C47.2771 35.9798 47.4193 36.1045 47.5545 36.223C47.754 36.3979 47.9383 36.5594 48.1097 36.7379C48.649 37.3009 48.649 38.0196 48.1577 38.4987C47.6543 38.9898 46.9593 38.9659 46.408 38.4149C46.2292 38.2284 46.0655 38.0268 45.8842 37.8035C45.7861 37.6826 45.6828 37.5553 45.5691 37.4207C45.4282 37.5704 45.305 37.7055 45.1914 37.8302C44.9958 38.0448 44.8283 38.2287 44.6463 38.4029C44.0711 38.9539 43.388 38.9898 42.8847 38.4987C42.3694 37.9956 42.3933 37.277 42.9566 36.69C43.1058 36.5341 43.2588 36.3859 43.433 36.2171ZM26.4971 34.6509C26.6364 34.6523 26.7809 34.6537 26.934 34.6537C26.934 34.5309 26.9331 34.4164 26.9323 34.3078C26.9301 34.0031 26.9283 33.7447 26.9459 33.4799C26.9699 32.7612 27.4732 32.2461 28.1443 32.2581C28.8035 32.2581 29.3068 32.7731 29.3308 33.5038C29.3386 33.7386 29.3362 33.9733 29.3336 34.2281C29.3322 34.3634 29.3308 34.5042 29.3308 34.6537C29.4694 34.6537 29.6038 34.6523 29.7355 34.651C29.9909 34.6483 30.2361 34.6458 30.4812 34.6537C31.2003 34.6777 31.7156 35.1808 31.7156 35.8396C31.7156 36.5103 31.2003 37.0134 30.4812 37.0374C30.2482 37.0452 30.0202 37.0428 29.7646 37.0403C29.6258 37.0389 29.479 37.0374 29.3188 37.0374C29.3188 37.1729 29.3202 37.3028 29.3216 37.429C29.3242 37.6708 29.3267 37.8991 29.3188 38.1274C29.3068 38.906 28.8394 39.4211 28.1443 39.433C27.4373 39.445 26.9459 38.918 26.934 38.1034V37.0374C26.7804 37.0374 26.6355 37.0388 26.4962 37.0402C26.2332 37.0428 25.9904 37.0452 25.7475 37.0374C25.0525 37.0015 24.5491 36.5103 24.5372 35.8755C24.5132 35.2167 25.0165 34.6897 25.7356 34.6537C25.9867 34.6459 26.2327 34.6483 26.4971 34.6509Z" fill="#E60000"/>
<path d="M37.7196 26.6882V27.6882H38.7196V26.6882H37.7196ZM35.3467 26.6882H34.3467V27.6882H35.3467V26.6882ZM37.725 25.5925L36.725 25.585V25.585L37.725 25.5925ZM37.7196 23.514L38.7193 23.491L38.7191 23.4832L38.7188 23.4755L37.7196 23.514ZM36.5931 22.4L36.6529 21.4018L36.643 21.4012L36.633 21.4008L36.5931 22.4ZM35.3587 23.3942L34.3605 23.3343L34.36 23.3423L34.3597 23.3502L35.3587 23.3942ZM35.3402 25.6869L36.3402 25.6771V25.6771L35.3402 25.6869ZM18.5332 42.188H19.5332V42.1696L19.5325 42.1513L18.5332 42.188ZM19.2287 38.3833L20.1865 38.6708L19.2287 38.3833ZM18.5305 42.4276L17.5306 42.4109L18.5305 42.4276ZM18.5332 42.9067L17.5343 42.9567L17.5352 42.9698L18.5332 42.9067ZM26.7302 48.4526L27.0455 49.4016L27.0463 49.4014L26.7302 48.4526ZM30.4812 44.9789L29.564 44.5806L29.5625 44.5841L30.4812 44.9789ZM33.8128 41.7328L34.1481 42.675L34.1499 42.6743L33.8128 41.7328ZM38.7143 41.5652L38.9551 40.5946L38.9499 40.5933L38.7143 41.5652ZM42.3933 44.8831L43.3079 44.4786L43.3065 44.4756L42.3933 44.8831ZM49.5598 48.6083L49.3343 47.6341L49.3338 47.6342L49.5598 48.6083ZM54.3294 40.8465L53.3621 41.1001L53.3628 41.1028L54.3294 40.8465ZM51.7768 32.0065L50.8243 32.3109L50.8244 32.3112L51.7768 32.0065ZM40.8474 28.8802L40.172 28.1428L40.1719 28.1429L40.8474 28.8802ZM40.2602 29.0958V28.0958L40.2554 28.0958L40.2602 29.0958ZM32.7103 29.0958L32.715 28.0958H32.7103V29.0958ZM32.0751 28.8682L32.7532 28.1332L32.7462 28.1268L32.0751 28.8682ZM21.0139 32.2461L21.9736 32.527L21.975 32.5222L21.0139 32.2461ZM20.6259 33.5667L19.6666 33.2843L19.6666 33.2843L20.6259 33.5667ZM19.4799 37.5285L20.4425 37.7994L20.4431 37.7973L19.4799 37.5285ZM43.8794 35.7797L44.5863 36.487L45.3368 35.7368L44.5435 35.0321L43.8794 35.7797ZM43.433 36.2171L42.7373 35.4988L42.7373 35.4989L43.433 36.2171ZM43.514 35.4672L44.1561 34.7005L44.1561 34.7005L43.514 35.4672ZM43.0285 35.037L43.7354 34.3297L43.7354 34.3297L43.0285 35.037ZM42.8967 33.1924L42.1897 32.4851V32.4851L42.8967 33.1924ZM44.7422 33.3481L45.4492 32.6408L44.7422 33.3481ZM45.3647 34.0034L46.0977 33.3232L46.0977 33.3232L45.3647 34.0034ZM45.5571 34.2105L44.8254 34.8921L45.5696 35.6911L46.3003 34.8797L45.5571 34.2105ZM45.8314 33.9006L45.0796 33.2412L45.0796 33.2412L45.8314 33.9006ZM46.4439 33.2403L45.7533 32.5171L45.7516 32.5187L46.4439 33.2403ZM48.1577 33.1804L48.856 32.4647L48.8556 32.4642L48.1577 33.1804ZM48.1217 34.9412L48.8435 35.6333L48.8442 35.6326L48.1217 34.9412ZM47.4375 35.569L46.7831 34.8129L46.7831 34.8129L47.4375 35.569ZM47.127 35.8396L46.4656 35.0896L45.6397 35.8179L46.4441 36.57L47.127 35.8396ZM47.5545 36.223L48.2136 35.471V35.471L47.5545 36.223ZM48.1097 36.7379L48.8319 36.0462L48.8309 36.0452L48.1097 36.7379ZM48.1577 38.4987L47.4595 37.7828L47.4593 37.783L48.1577 38.4987ZM46.408 38.4149L45.6862 39.107L45.6935 39.1146L45.7011 39.1222L46.408 38.4149ZM45.8842 37.8035L45.1079 38.4338H45.1079L45.8842 37.8035ZM45.5691 37.4207L46.3333 36.7756L45.6099 35.9187L44.8411 36.7351L45.5691 37.4207ZM45.1914 37.8302L45.9305 38.5038L45.9305 38.5038L45.1914 37.8302ZM44.6463 38.4029L43.9546 37.6807H43.9546L44.6463 38.4029ZM42.8847 38.4987L42.1861 39.2143L42.1863 39.2145L42.8847 38.4987ZM42.9566 36.69L43.6781 37.3824L43.6791 37.3814L42.9566 36.69ZM26.934 34.6537V35.6537H27.934V34.6537H26.934ZM26.4971 34.6509L26.4872 35.6509H26.4872L26.4971 34.6509ZM26.9323 34.3078L27.9323 34.3006V34.3006L26.9323 34.3078ZM26.9459 33.4799L27.9437 33.5464L27.9448 33.5298L27.9454 33.5132L26.9459 33.4799ZM28.1443 32.2581L28.1265 33.2579L28.1354 33.2581H28.1443V32.2581ZM29.3308 33.5038L28.3313 33.5366L28.3313 33.5371L29.3308 33.5038ZM29.3336 34.2281L30.3335 34.2384V34.2384L29.3336 34.2281ZM29.3308 34.6537H28.3308V35.6537H29.3308V34.6537ZM29.7355 34.651L29.7458 35.6509H29.7458L29.7355 34.651ZM30.4812 34.6537L30.5145 33.6543L30.5135 33.6542L30.4812 34.6537ZM30.4812 37.0374L30.4479 36.0379L30.4479 36.0379L30.4812 37.0374ZM29.7646 37.0403L29.7747 36.0403H29.7746L29.7646 37.0403ZM29.3188 37.0374V36.0374H28.3188V37.0374H29.3188ZM29.3216 37.429L30.3215 37.4181V37.4181L29.3216 37.429ZM29.3188 38.1274L28.3194 38.0929L28.319 38.1025L28.3189 38.112L29.3188 38.1274ZM28.1443 39.433L28.1613 40.4329L28.1616 40.4329L28.1443 39.433ZM26.934 38.1034H25.934V38.1108L25.9341 38.1182L26.934 38.1034ZM26.934 37.0374H27.934V36.0374H26.934V37.0374ZM26.4962 37.0402L26.5061 38.0402H26.5061L26.4962 37.0402ZM25.7475 37.0374L25.6959 38.0361L25.7056 38.0366L25.7153 38.0369L25.7475 37.0374ZM24.5372 35.8755L25.537 35.8566L25.5368 35.8479L25.5365 35.8391L24.5372 35.8755ZM25.7356 34.6537L25.7043 33.6542L25.695 33.6545L25.6856 33.655L25.7356 34.6537ZM37.7196 25.6882H35.3467V27.6882H37.7196V25.6882ZM36.725 25.585C36.7223 25.9436 36.7196 26.3115 36.7196 26.6882H38.7196C38.7196 26.3202 38.7223 25.9598 38.725 25.6001L36.725 25.585ZM36.7198 23.537C36.7353 24.2092 36.7303 24.8786 36.725 25.585L38.725 25.6001C38.7302 24.8988 38.7356 24.1988 38.7193 23.491L36.7198 23.537ZM36.5332 23.3982C36.5983 23.4021 36.6483 23.4283 36.6785 23.4573C36.7045 23.4823 36.7187 23.5108 36.7203 23.5524L38.7188 23.4755C38.6731 22.2863 37.7113 21.4653 36.6529 21.4018L36.5332 23.3982ZM36.3569 23.4541C36.3562 23.4667 36.3519 23.477 36.3501 23.4801C36.3494 23.4813 36.3552 23.4709 36.3752 23.4555C36.3953 23.44 36.4238 23.4242 36.4583 23.4131C36.4926 23.4021 36.5255 23.3981 36.5531 23.3992L36.633 21.4008C35.6424 21.3612 34.4375 22.0512 34.3605 23.3343L36.3569 23.4541ZM36.3402 25.6771C36.3326 24.9029 36.3256 24.1683 36.3577 23.4381L34.3597 23.3502C34.3248 24.1431 34.3328 24.9316 34.3403 25.6967L36.3402 25.6771ZM36.3467 26.6882C36.3467 26.3468 36.3434 26.0084 36.3402 25.6771L34.3403 25.6967C34.3435 26.0295 34.3467 26.3582 34.3467 26.6882H36.3467ZM19.5325 42.1513C19.4908 41.0182 19.8062 39.9375 20.1865 38.6708L18.2709 38.0958C17.906 39.3115 17.478 40.7072 17.5338 42.2248L19.5325 42.1513ZM19.5304 42.4443C19.5317 42.3658 19.5332 42.2776 19.5332 42.188H17.5332C17.5332 42.2581 17.532 42.3297 17.5306 42.4109L19.5304 42.4443ZM19.5319 42.8568C19.5259 42.7359 19.5276 42.6095 19.5304 42.4443L17.5306 42.4109C17.5281 42.5651 17.5245 42.7581 17.5344 42.9567L19.5319 42.8568ZM26.415 47.5036C23.0748 48.6131 19.7537 46.3619 19.5312 42.8436L17.5352 42.9698C17.8399 47.7883 22.4523 50.9273 27.0455 49.4016L26.415 47.5036ZM29.5625 44.5841C28.9406 46.0309 27.8968 47.0099 26.4141 47.5039L27.0463 49.4014C29.0869 48.7215 30.5598 47.3288 31.4 45.3738L29.5625 44.5841ZM33.4775 40.7907C31.5938 41.4611 30.3269 42.8241 29.564 44.5806L31.3985 45.3773C31.9778 44.0434 32.8679 43.1305 34.1481 42.675L33.4775 40.7907ZM38.9499 40.5933C37.1718 40.1621 35.3019 40.1375 33.4757 40.7914L34.1499 42.6743C35.5354 42.1782 36.9971 42.1777 38.4786 42.537L38.9499 40.5933ZM43.3065 44.4756C42.4738 42.6096 41.1155 41.1308 38.9551 40.5946L38.4734 42.5357C39.8842 42.8859 40.8268 43.8267 41.4802 45.2906L43.3065 44.4756ZM49.3338 47.6342C46.9864 48.1787 44.3587 46.8546 43.3079 44.4786L41.4788 45.2876C42.8967 48.4935 46.4528 50.3556 49.7857 49.5825L49.3338 47.6342ZM53.3628 41.1028C54.1109 43.9242 52.2226 46.9656 49.3343 47.6341L49.7853 49.5826C53.7279 48.67 56.3456 44.5484 55.296 40.5902L53.3628 41.1028ZM50.8244 32.3112C51.7526 35.2136 52.5867 38.1428 53.3621 41.1001L55.2967 40.5928C54.5143 37.6089 53.6705 34.6448 52.7293 31.7019L50.8244 32.3112ZM41.5228 29.6176C44.5194 26.8729 49.564 28.3666 50.8243 32.3109L52.7294 31.7022C51.0656 26.4951 44.3418 24.3234 40.172 28.1428L41.5228 29.6176ZM40.2602 30.0958C40.6606 30.0958 41.1663 29.9443 41.523 29.6175L40.1719 28.1429C40.2022 28.1151 40.2245 28.102 40.2309 28.0984C40.2383 28.0942 40.2398 28.0941 40.2356 28.0956C40.234 28.0962 40.2321 28.0968 40.2304 28.0973C40.2287 28.0977 40.2278 28.0979 40.228 28.0979C40.2282 28.0978 40.2305 28.0974 40.2351 28.0969C40.2396 28.0965 40.2481 28.0958 40.2602 28.0958V30.0958ZM32.7055 30.0958C35.2253 30.1078 37.7451 30.1078 40.2649 30.0958L40.2554 28.0958C37.742 28.1078 35.2285 28.1078 32.715 28.0958L32.7055 30.0958ZM31.397 29.6032C31.7765 29.9533 32.3019 30.0958 32.7103 30.0958V28.0958C32.7198 28.0958 32.721 28.0966 32.7151 28.0956C32.7096 28.0946 32.7031 28.093 32.6976 28.091C32.6919 28.0891 32.6925 28.0887 32.6994 28.0925C32.7055 28.096 32.7257 28.1079 32.7532 28.1333L31.397 29.6032ZM21.975 32.5222C23.1542 28.4175 28.3196 26.818 31.4041 29.6097L32.7462 28.1268C28.4724 24.2586 21.6058 26.564 20.0527 31.97L21.975 32.5222ZM21.5852 33.8491C21.7147 33.409 21.8445 32.9681 21.9736 32.527L20.0541 31.9652C19.9255 32.4045 19.7962 32.844 19.6666 33.2843L21.5852 33.8491ZM20.4431 37.7973C20.8094 36.4846 21.1961 35.1708 21.5852 33.8491L19.6666 33.2843C19.2782 34.6038 18.8874 35.9312 18.5167 37.2597L20.4431 37.7973ZM20.1865 38.6708C20.2714 38.3878 20.3593 38.0949 20.4425 37.7994L18.5173 37.2576C18.4396 37.5337 18.3567 37.81 18.2709 38.0958L20.1865 38.6708ZM43.1724 35.0724C43.0121 35.2326 42.8712 35.3692 42.7373 35.4988L44.1288 36.9354C44.2623 36.8061 44.4136 36.6596 44.5863 36.487L43.1724 35.0724ZM42.8719 36.2338C42.9887 36.3316 43.1 36.4249 43.2152 36.5272L44.5435 35.0321C44.4034 34.9076 44.2707 34.7965 44.1561 34.7005L42.8719 36.2338ZM42.3216 35.7443C42.5035 35.9261 42.7015 36.0911 42.8719 36.2338L44.1561 34.7005C43.9712 34.5457 43.8438 34.438 43.7354 34.3297L42.3216 35.7443ZM42.1897 32.4851C41.7487 32.9259 41.5007 33.5088 41.5423 34.1441C41.5827 34.762 41.888 35.3109 42.3216 35.7443L43.7354 34.3297C43.5578 34.1522 43.5395 34.0364 43.538 34.0135C43.5372 34.0012 43.5386 33.9928 43.5428 33.9823C43.5475 33.9706 43.5618 33.9415 43.6036 33.8997L42.1897 32.4851ZM45.4492 32.6408C45.0219 32.2138 44.4801 31.903 43.8673 31.8515C43.2313 31.798 42.6393 32.0357 42.1897 32.4851L43.6036 33.8997C43.6424 33.8609 43.6674 33.8499 43.6744 33.8473C43.6803 33.845 43.6864 33.8434 43.6997 33.8445C43.728 33.8469 43.8513 33.8715 44.0353 34.0554L45.4492 32.6408ZM46.0977 33.3232C45.8689 33.0765 45.6641 32.8556 45.4492 32.6408L44.0353 34.0554C44.2187 34.2387 44.3972 34.4309 44.6316 34.6835L46.0977 33.3232ZM46.2889 33.5289C46.2221 33.4573 46.1589 33.3891 46.0977 33.3232L44.6316 34.6835C44.6926 34.7493 44.7571 34.8188 44.8254 34.8921L46.2889 33.5289ZM45.0796 33.2412C44.9912 33.342 44.9048 33.4405 44.814 33.5414L46.3003 34.8797C46.4012 34.7676 46.496 34.6595 46.5833 34.5599L45.0796 33.2412ZM45.7516 32.5187C45.5043 32.756 45.2829 33.0094 45.0796 33.2412L46.5833 34.5599C46.7973 34.3159 46.9619 34.1292 47.1363 33.9618L45.7516 32.5187ZM48.8556 32.4642C48.4322 32.0516 47.8797 31.825 47.2934 31.8425C46.7129 31.8598 46.1764 32.113 45.7533 32.5171L47.1346 33.9634C47.2507 33.8526 47.3314 33.8422 47.3531 33.8416C47.369 33.8411 47.4038 33.842 47.4597 33.8966L48.8556 32.4642ZM48.8442 35.6326C49.2561 35.2022 49.5145 34.6528 49.526 34.0577C49.5376 33.4553 49.2934 32.8914 48.856 32.4647L47.4593 33.8961C47.5252 33.9605 47.5267 34.0015 47.5264 34.019C47.5259 34.0438 47.5147 34.1292 47.3992 34.2498L48.8442 35.6326ZM48.0919 36.3252C48.3471 36.1044 48.6043 35.8828 48.8435 35.6333L47.3999 34.2491C47.2368 34.4192 47.0535 34.5789 46.7831 34.8129L48.0919 36.3252ZM47.7885 36.5896C47.8946 36.496 47.9943 36.4097 48.0919 36.3252L46.7831 34.8129C46.6862 34.8968 46.5797 34.9889 46.4656 35.0896L47.7885 36.5896ZM48.2136 35.471C48.0773 35.3515 47.9467 35.2369 47.81 35.1091L46.4441 36.57C46.6075 36.7228 46.7612 36.8575 46.8953 36.975L48.2136 35.471ZM48.8309 36.0452C48.6246 35.8304 48.4074 35.6408 48.2136 35.471L46.8953 36.975C47.1007 37.155 47.2519 37.2884 47.3885 37.4306L48.8309 36.0452ZM48.8558 39.2147C49.2882 38.793 49.5316 38.2317 49.52 37.6304C49.5085 37.0349 49.2497 36.4824 48.8319 36.0462L47.3876 37.4297C47.5091 37.5565 47.5199 37.6448 47.5204 37.6691C47.5207 37.6877 47.5185 37.7253 47.4595 37.7828L48.8558 39.2147ZM45.7011 39.1222C46.12 39.5409 46.6579 39.8202 47.2568 39.8466C47.8643 39.8734 48.426 39.634 48.856 39.2145L47.4593 37.783C47.4193 37.8221 47.3899 37.837 47.3759 37.8427C47.3628 37.848 47.3538 37.849 47.3449 37.8486C47.3325 37.848 47.2473 37.8399 47.1149 37.7076L45.7011 39.1222ZM45.1079 38.4338C45.284 38.6507 45.4738 38.8854 45.6862 39.107L47.1298 37.7228C46.9846 37.5713 46.847 37.4028 46.6606 37.1732L45.1079 38.4338ZM44.805 38.0657C44.9116 38.192 45.0091 38.3121 45.1079 38.4338L46.6606 37.1732C46.5631 37.053 46.454 36.9187 46.3333 36.7756L44.805 38.0657ZM45.9305 38.5038C46.0445 38.3787 46.1625 38.2492 46.2971 38.1062L44.8411 36.7351C44.6938 36.8915 44.5656 37.0322 44.4523 37.1566L45.9305 38.5038ZM45.3381 39.1251C45.5488 38.9232 45.7394 38.7134 45.9305 38.5038L44.4523 37.1566C44.2521 37.3762 44.1077 37.5341 43.9546 37.6807L45.3381 39.1251ZM42.1863 39.2145C42.6187 39.6364 43.1816 39.8731 43.7924 39.8402C44.3877 39.8081 44.9185 39.527 45.3381 39.1251L43.9546 37.6807C43.799 37.8298 43.7006 37.8422 43.6847 37.8431C43.6758 37.8435 43.6695 37.8426 43.6603 37.839C43.6502 37.8349 43.6229 37.8219 43.5831 37.783L42.1863 39.2145ZM42.2351 35.9976C41.819 36.4312 41.5399 36.9808 41.5169 37.5879C41.4934 38.2081 41.7425 38.7812 42.1861 39.2143L43.5833 37.7832C43.5431 37.744 43.528 37.7152 43.5223 37.7016C43.5169 37.6886 43.5149 37.6776 43.5155 37.6637C43.5164 37.639 43.531 37.5358 43.6781 37.3824L42.2351 35.9976ZM42.7373 35.4989C42.5657 35.6651 42.3987 35.8266 42.2341 35.9986L43.6791 37.3814C43.8129 37.2416 43.952 37.1067 44.1288 36.9354L42.7373 35.4989ZM26.934 33.6537C26.7866 33.6537 26.6469 33.6523 26.507 33.651L26.4872 35.6509C26.626 35.6522 26.7752 35.6537 26.934 35.6537V33.6537ZM25.9324 34.315C25.9332 34.424 25.934 34.5351 25.934 34.6537H27.934C27.934 34.5268 27.9331 34.4088 27.9323 34.3006L25.9324 34.315ZM25.9482 33.4133C25.9276 33.7215 25.9302 34.0174 25.9324 34.315L27.9323 34.3006C27.9301 33.9889 27.9289 33.768 27.9437 33.5464L25.9482 33.4133ZM28.1622 31.2582C26.8792 31.2353 25.9864 32.25 25.9465 33.4465L27.9454 33.5132C27.9498 33.3808 27.9946 33.3174 28.0168 33.2948C28.0351 33.2761 28.063 33.2568 28.1265 33.2579L28.1622 31.2582ZM30.3302 33.471C30.2909 32.271 29.4103 31.2581 28.1443 31.2581V33.2581C28.2023 33.2581 28.2321 33.2763 28.2542 33.2993C28.2793 33.3255 28.3267 33.3949 28.3313 33.5366L30.3302 33.471ZM30.3335 34.2384C30.3361 33.9877 30.3389 33.7308 30.3302 33.4705L28.3313 33.5371C28.3383 33.7464 28.3363 33.959 28.3336 34.2179L30.3335 34.2384ZM30.3308 34.6537C30.3308 34.5101 30.3321 34.3742 30.3335 34.2384L28.3336 34.2179C28.3323 34.3526 28.3308 34.4984 28.3308 34.6537H30.3308ZM29.7252 33.651C29.5928 33.6524 29.4634 33.6537 29.3308 33.6537V35.6537C29.4753 35.6537 29.6148 35.6523 29.7458 35.6509L29.7252 33.651ZM30.5135 33.6542C30.2434 33.6455 29.9769 33.6484 29.7252 33.651L29.7458 35.6509C30.005 35.6483 30.2287 35.6461 30.449 35.6532L30.5135 33.6542ZM32.7156 35.8396C32.7156 34.5789 31.7079 33.694 30.5145 33.6543L30.4479 35.6532C30.5802 35.6576 30.647 35.7025 30.6735 35.7281C30.6972 35.7509 30.7156 35.7817 30.7156 35.8396H32.7156ZM30.5145 38.0368C31.7146 37.9968 32.7156 37.1058 32.7156 35.8396H30.7156C30.7156 35.9083 30.6936 35.9421 30.671 35.964C30.6454 35.9889 30.5801 36.0335 30.4479 36.0379L30.5145 38.0368ZM29.7545 38.0402C30.0062 38.0428 30.2561 38.0454 30.5145 38.0368L30.4479 36.0379C30.2403 36.0449 30.0342 36.0429 29.7747 36.0403L29.7545 38.0402ZM29.3188 38.0374C29.4732 38.0374 29.6153 38.0388 29.7545 38.0402L29.7746 36.0403C29.6364 36.0389 29.4847 36.0374 29.3188 36.0374V38.0374ZM30.3215 37.4181C30.3201 37.2912 30.3188 37.1666 30.3188 37.0374H28.3188C28.3188 37.1792 28.3203 37.3143 28.3216 37.4398L30.3215 37.4181ZM30.3182 38.1619C30.327 37.9071 30.3241 37.6559 30.3215 37.4181L28.3216 37.4398C28.3243 37.6858 28.3263 37.8912 28.3194 38.0929L30.3182 38.1619ZM28.1616 40.4329C28.7656 40.4225 29.3261 40.1856 29.7304 39.7374C30.1268 39.2978 30.3097 38.7268 30.3187 38.1428L28.3189 38.112C28.3159 38.3065 28.2591 38.3825 28.2451 38.398C28.237 38.407 28.2291 38.4127 28.2179 38.4176C28.2061 38.4228 28.1783 38.4323 28.1271 38.4332L28.1616 40.4329ZM25.9341 38.1182C25.9429 38.7204 26.132 39.3073 26.5413 39.7539C26.9597 40.2104 27.5403 40.4434 28.1613 40.4329L28.1274 38.4332C28.078 38.434 28.052 38.4255 28.0419 38.4212C28.0323 38.4173 28.0246 38.4122 28.0157 38.4025C27.9995 38.3849 27.937 38.301 27.9338 38.0887L25.9341 38.1182ZM25.934 37.0374V38.1034H27.934V37.0374H25.934ZM26.5061 38.0402C26.6459 38.0388 26.7861 38.0374 26.934 38.0374V36.0374C26.7747 36.0374 26.625 36.0389 26.4863 36.0403L26.5061 38.0402ZM25.7153 38.0369C25.9829 38.0455 26.2471 38.0427 26.5061 38.0402L26.4863 36.0403C26.2194 36.0429 25.9979 36.0449 25.7798 36.0379L25.7153 38.0369ZM23.5373 35.8944C23.5604 37.1156 24.5404 37.9763 25.6959 38.0361L25.7992 36.0387C25.6759 36.0323 25.6095 35.9893 25.5804 35.9613C25.5537 35.9355 25.5379 35.9048 25.537 35.8566L23.5373 35.8944ZM25.6856 33.655C24.4763 33.7154 23.492 34.652 23.5378 35.9119L25.5365 35.8391C25.5345 35.7837 25.5514 35.752 25.5744 35.7284C25.5993 35.7029 25.6611 35.6587 25.7855 35.6525L25.6856 33.655ZM26.507 33.651C26.246 33.6484 25.9795 33.6456 25.7043 33.6542L25.7668 35.6532C25.9939 35.6461 26.2193 35.6482 26.4872 35.6509L26.507 33.651Z" fill="#E60000" mask="url(#path-2-inside-1_184_874)"/>
</g>
</g>
<defs>
<filter id="filter0_b_184_874" x="6.52783" y="10.399" width="60" height="50.3903" filterUnits="userSpaceOnUse" color-interpolation-filters="sRGB">
<feFlood flood-opacity="0" result="BackgroundImageFix"/>
<feGaussianBlur in="BackgroundImageFix" stdDeviation="6"/>
<feComposite in2="SourceAlpha" operator="in" result="effect1_backgroundBlur_184_874"/>
<feBlend mode="normal" in="SourceGraphic" in2="effect1_backgroundBlur_184_874" result="shape"/>
</filter>
<clipPath id="clip0_184_874">
<rect width="36" height="26.4" fill="white" transform="translate(18.5332 22.4)"/>
</clipPath>
</defs>
</svg>
