<svg width="72" height="72" viewBox="0 0 72 72" fill="none" xmlns="http://www.w3.org/2000/svg">
<rect x="0.5" y="0.5" width="71" height="71" rx="11.5" fill="#141414"/>
<rect x="0.5" y="0.5" width="71" height="71" rx="11.5" stroke="#1F1F1F"/>
<g clip-path="url(#clip0_184_866)">
<g filter="url(#filter0_b_184_866)">
<mask id="path-2-inside-1_184_866" fill="white">
<path fill-rule="evenodd" clip-rule="evenodd" d="M49.1365 22.2H36.1305H23.1367C21.8178 22.2 21.4514 22.5655 21.4514 23.8446V37.61C21.4514 38.8769 21.83 39.2546 23.0756 39.2546H49.1365C50.3821 39.2546 50.7607 38.8769 50.7607 37.61V23.8446C50.7607 22.5776 50.3821 22.2 49.1365 22.2ZM19.3753 49H36.045H52.849C53.1421 49 53.4596 48.9878 53.7405 48.8904C54.3877 48.6711 54.5831 48.1351 54.2534 47.5382C53.0935 45.419 51.9213 43.312 50.7492 41.2049L50.7485 41.2037C50.4676 40.7164 50.0646 40.4727 49.5029 40.4727H22.6971C22.1353 40.4727 21.7323 40.7164 21.4636 41.2037L21.4636 41.2037C20.2912 43.3111 19.1189 45.4186 17.9587 47.5382C17.629 48.1351 17.8366 48.6711 18.4838 48.8904C18.7525 48.9878 19.07 49 19.3753 49ZM36.8632 46.5664C36.6068 46.565 36.3503 46.5637 36.0938 46.5637C35.8378 46.5637 35.5818 46.565 35.3254 46.5663C34.8111 46.5691 34.295 46.5718 33.7735 46.5637C32.9919 46.5515 32.4546 46.0642 32.4424 45.3698C32.4302 44.6511 32.9797 44.1395 33.798 44.1395C35.3367 44.1273 36.8876 44.1273 38.4264 44.1395C39.208 44.1517 39.7453 44.6389 39.7575 45.3333C39.7697 46.0398 39.2202 46.5515 38.402 46.5637C37.889 46.5718 37.3761 46.5691 36.8632 46.5664Z"/>
</mask>
<path fill-rule="evenodd" clip-rule="evenodd" d="M49.1365 22.2H36.1305H23.1367C21.8178 22.2 21.4514 22.5655 21.4514 23.8446V37.61C21.4514 38.8769 21.83 39.2546 23.0756 39.2546H49.1365C50.3821 39.2546 50.7607 38.8769 50.7607 37.61V23.8446C50.7607 22.5776 50.3821 22.2 49.1365 22.2ZM19.3753 49H36.045H52.849C53.1421 49 53.4596 48.9878 53.7405 48.8904C54.3877 48.6711 54.5831 48.1351 54.2534 47.5382C53.0935 45.419 51.9213 43.312 50.7492 41.2049L50.7485 41.2037C50.4676 40.7164 50.0646 40.4727 49.5029 40.4727H22.6971C22.1353 40.4727 21.7323 40.7164 21.4636 41.2037L21.4636 41.2037C20.2912 43.3111 19.1189 45.4186 17.9587 47.5382C17.629 48.1351 17.8366 48.6711 18.4838 48.8904C18.7525 48.9878 19.07 49 19.3753 49ZM36.8632 46.5664C36.6068 46.565 36.3503 46.5637 36.0938 46.5637C35.8378 46.5637 35.5818 46.565 35.3254 46.5663C34.8111 46.5691 34.295 46.5718 33.7735 46.5637C32.9919 46.5515 32.4546 46.0642 32.4424 45.3698C32.4302 44.6511 32.9797 44.1395 33.798 44.1395C35.3367 44.1273 36.8876 44.1273 38.4264 44.1395C39.208 44.1517 39.7453 44.6389 39.7575 45.3333C39.7697 46.0398 39.2202 46.5515 38.402 46.5637C37.889 46.5718 37.3761 46.5691 36.8632 46.5664Z" fill="#E60000"/>
<path d="M53.7405 48.8904L53.4196 47.9432L53.4127 47.9456L53.7405 48.8904ZM54.2534 47.5382L53.3762 48.0183L53.3781 48.0217L54.2534 47.5382ZM50.7492 41.2049L51.6231 40.7188L51.6223 40.7173L50.7492 41.2049ZM50.7485 41.2037L51.6216 40.716L51.6149 40.7042L50.7485 41.2037ZM21.4636 41.2037L22.3385 41.688L22.3393 41.6865L21.4636 41.2037ZM21.4636 41.2037L22.3375 41.6898L22.3385 41.688L21.4636 41.2037ZM17.9587 47.5382L18.834 48.0217L18.8359 48.0183L17.9587 47.5382ZM18.4838 48.8904L18.8248 47.9503L18.8148 47.9467L18.8047 47.9433L18.4838 48.8904ZM36.8632 46.5664L36.8579 47.5663H36.8579L36.8632 46.5664ZM35.3254 46.5663L35.3201 45.5664H35.3201L35.3254 46.5663ZM33.7735 46.5637L33.7891 45.5638H33.7891L33.7735 46.5637ZM32.4424 45.3698L31.4425 45.3868L31.4426 45.3874L32.4424 45.3698ZM33.798 44.1395V45.1395L33.8059 45.1394L33.798 44.1395ZM38.4264 44.1395L38.442 43.1396L38.4343 43.1395L38.4264 44.1395ZM39.7575 45.3333L40.7574 45.316L40.7574 45.3157L39.7575 45.3333ZM38.402 46.5637L38.3871 45.5638L38.3861 45.5638L38.402 46.5637ZM36.1305 23.2H49.1365V21.2H36.1305V23.2ZM23.1367 23.2H36.1305V21.2H23.1367V23.2ZM22.4514 23.8446C22.4514 23.5622 22.4728 23.3943 22.4979 23.2966C22.5199 23.2106 22.5332 23.2237 22.4993 23.2569C22.4666 23.2889 22.4589 23.2721 22.5565 23.248C22.6641 23.2214 22.8432 23.2 23.1367 23.2V21.2C22.4619 21.2 21.6656 21.2738 21.0996 21.8283C20.5266 22.3897 20.4514 23.1844 20.4514 23.8446H22.4514ZM22.4514 37.61V23.8446H20.4514V37.61H22.4514ZM23.0756 38.2546C22.8053 38.2546 22.6436 38.233 22.5498 38.2084C22.4669 38.1867 22.4767 38.1732 22.5069 38.2037C22.5365 38.2336 22.5213 38.2408 22.4985 38.1522C22.4731 38.0536 22.4514 37.8862 22.4514 37.61H20.4514C20.4514 38.2745 20.5337 39.0535 21.0859 39.6111C21.6413 40.1718 22.4192 40.2546 23.0756 40.2546V38.2546ZM49.1365 38.2546H23.0756V40.2546H49.1365V38.2546ZM49.7607 37.61C49.7607 37.8862 49.739 38.0536 49.7136 38.1522C49.6908 38.2408 49.6756 38.2336 49.7052 38.2037C49.7354 38.1732 49.7452 38.1867 49.6623 38.2084C49.5685 38.233 49.4068 38.2546 49.1365 38.2546V40.2546C49.7929 40.2546 50.5708 40.1718 51.1262 39.6111C51.6784 39.0535 51.7607 38.2745 51.7607 37.61H49.7607ZM49.7607 23.8446V37.61H51.7607V23.8446H49.7607ZM49.1365 23.2C49.4068 23.2 49.5685 23.2216 49.6623 23.2462C49.7452 23.2679 49.7354 23.2814 49.7052 23.2509C49.6756 23.221 49.6908 23.2137 49.7136 23.3023C49.739 23.401 49.7607 23.5684 49.7607 23.8446H51.7607C51.7607 23.18 51.6784 22.4011 51.1262 21.8435C50.5708 21.2827 49.7929 21.2 49.1365 21.2V23.2ZM36.045 48H19.3753V50H36.045V48ZM52.849 48H36.045V50H52.849V48ZM53.4127 47.9456C53.3054 47.9829 53.1382 48 52.849 48V50C53.146 50 53.6138 49.9928 54.0683 49.8351L53.4127 47.9456ZM53.3781 48.0217C53.4105 48.0804 53.4127 48.1065 53.4118 48.0997C53.4113 48.0959 53.4102 48.0844 53.4121 48.0667C53.414 48.0487 53.4185 48.0274 53.427 48.0047C53.4355 47.982 53.4465 47.962 53.4581 47.9456C53.4695 47.9294 53.4796 47.9197 53.4846 47.9153C53.4943 47.9069 53.4801 47.9228 53.4196 47.9433L54.0614 49.8375C54.5886 49.6589 55.0791 49.295 55.2996 48.7071C55.5183 48.1242 55.3923 47.5318 55.1287 47.0547L53.3781 48.0217ZM49.8753 41.6911C51.0477 43.7986 52.2182 45.9026 53.3762 48.0183L55.1306 47.0581C53.9688 44.9353 52.795 42.8253 51.6231 40.7188L49.8753 41.6911ZM49.8755 41.6913L49.8762 41.6926L51.6223 40.7173L51.6215 40.716L49.8755 41.6913ZM49.5029 41.4727C49.6344 41.4727 49.6939 41.4996 49.7221 41.5163C49.7523 41.5341 49.8101 41.5782 49.8821 41.7031L51.6149 40.7042C51.406 40.3419 51.1219 40.0204 50.7399 39.7946C50.356 39.5677 49.9331 39.4727 49.5029 39.4727V41.4727ZM22.6971 41.4727H49.5029V39.4727H22.6971V41.4727ZM22.3393 41.6865C22.4041 41.569 22.4567 41.5298 22.4821 41.5147C22.5069 41.4999 22.5647 41.4727 22.6971 41.4727V39.4727C22.2676 39.4727 21.8431 39.5674 21.4588 39.7963C21.0751 40.0248 20.7918 40.3511 20.5879 40.7208L22.3393 41.6865ZM22.3385 41.688L22.3385 41.688L20.5887 40.7193L20.5887 40.7194L22.3385 41.688ZM18.8359 48.0183C19.9941 45.9022 21.1648 43.7978 22.3375 41.6898L20.5897 40.7176C19.4176 42.8245 18.2436 44.9349 17.0815 47.0581L18.8359 48.0183ZM18.8047 47.9433C18.7434 47.9225 18.7266 47.9057 18.7337 47.9117C18.7375 47.915 18.7464 47.9235 18.7571 47.9383C18.768 47.9533 18.7786 47.9721 18.7872 47.9941C18.7957 48.0161 18.8006 48.0373 18.8027 48.0558C18.8048 48.074 18.8039 48.0864 18.8033 48.0916C18.8021 48.1012 18.803 48.0779 18.834 48.0217L17.0834 47.0547C16.816 47.5387 16.6967 48.1354 16.9226 48.7177C17.1486 49.2998 17.639 49.66 18.163 49.8375L18.8047 47.9433ZM19.3753 48C19.066 48 18.9102 47.9813 18.8248 47.9503L18.1428 49.8304C18.5948 49.9944 19.0741 50 19.3753 50V48ZM36.0938 47.5637C36.3472 47.5637 36.601 47.565 36.8579 47.5663L36.8685 45.5664C36.6125 45.565 36.3534 45.5637 36.0938 45.5637V47.5637ZM35.3306 47.5663C35.5875 47.565 35.8409 47.5637 36.0938 47.5637V45.5637C35.8348 45.5637 35.5761 45.565 35.3201 45.5664L35.3306 47.5663ZM33.7579 47.5635C34.2916 47.5718 34.818 47.569 35.3307 47.5663L35.3201 45.5664C34.8042 45.5691 34.2985 45.5717 33.7891 45.5638L33.7579 47.5635ZM31.4426 45.3874C31.4534 46.0023 31.7037 46.5639 32.1506 46.966C32.5903 47.3616 33.1638 47.5543 33.7579 47.5635L33.7891 45.5638C33.6017 45.5609 33.5157 45.5038 33.4883 45.4792C33.4681 45.461 33.4436 45.4317 33.4422 45.3522L31.4426 45.3874ZM33.798 43.1395C33.1814 43.1395 32.5854 43.3343 32.134 43.7471C31.6747 44.1671 31.4318 44.7541 31.4425 45.3868L33.4423 45.3528C33.4414 45.304 33.4501 45.2757 33.456 45.2616C33.4618 45.2477 33.4699 45.2356 33.4836 45.2231C33.5084 45.2005 33.5963 45.1395 33.798 45.1395V43.1395ZM38.4343 43.1395C36.8903 43.1273 35.3341 43.1273 33.79 43.1395L33.8059 45.1394C35.3393 45.1273 36.885 45.1273 38.4185 45.1394L38.4343 43.1395ZM40.7574 45.3157C40.7465 44.7008 40.4962 44.1392 40.0493 43.7372C39.6096 43.3416 39.0361 43.1489 38.442 43.1396L38.4108 45.1393C38.5982 45.1423 38.6842 45.1993 38.7116 45.224C38.7318 45.2422 38.7563 45.2714 38.7577 45.3509L40.7574 45.3157ZM38.4168 47.5635C39.0293 47.5544 39.619 47.3555 40.066 46.9468C40.5212 46.5305 40.7683 45.9484 40.7574 45.316L38.7577 45.3506C38.7584 45.3939 38.7507 45.4187 38.7454 45.4313C38.74 45.4439 38.7318 45.4567 38.7163 45.4709C38.687 45.4977 38.5928 45.5607 38.3871 45.5638L38.4168 47.5635ZM36.8579 47.5663C37.3691 47.569 37.8926 47.5718 38.4178 47.5635L38.3861 45.5638C37.8855 45.5717 37.3832 45.5691 36.8685 45.5664L36.8579 47.5663Z" fill="#E60000" mask="url(#path-2-inside-1_184_866)"/>
</g>
</g>
<defs>
<filter id="filter0_b_184_866" x="5.80402" y="10.2" width="60.607" height="50.8" filterUnits="userSpaceOnUse" color-interpolation-filters="sRGB">
<feFlood flood-opacity="0" result="BackgroundImageFix"/>
<feGaussianBlur in="BackgroundImageFix" stdDeviation="6"/>
<feComposite in2="SourceAlpha" operator="in" result="effect1_backgroundBlur_184_866"/>
<feBlend mode="normal" in="SourceGraphic" in2="effect1_backgroundBlur_184_866" result="shape"/>
</filter>
<clipPath id="clip0_184_866">
<rect width="36.6" height="26.8" fill="white" transform="translate(17.8 22.2)"/>
</clipPath>
</defs>
</svg>
