<svg width="72" height="72" viewBox="0 0 72 72" fill="none" xmlns="http://www.w3.org/2000/svg">
<rect x="0.5" y="0.5" width="71" height="71" rx="11.5" fill="#141414"/>
<rect x="0.5" y="0.5" width="71" height="71" rx="11.5" stroke="#1F1F1F"/>
<g clip-path="url(#clip0_184_842)">
<g filter="url(#filter0_b_184_842)">
<path d="M26.4 35.6C26.4 30.9566 26.3888 26.3021 26.4 21.6587C26.4 19.7474 27.3669 18.3533 29.0646 17.8024C29.4693 17.6675 29.9078 17.6112 30.3351 17.6112C34.2589 17.6 38.1827 17.6 42.0952 17.6112C44.3775 17.6225 46.0415 19.2752 46.0415 21.5463C46.0527 30.9229 46.0527 40.2883 46.0415 49.665C46.0415 51.936 44.3775 53.6 42.1065 53.6C38.2276 53.6112 34.3488 53.6112 30.47 53.6C28.0415 53.6 26.4225 52.0035 26.4113 49.5525C26.3888 44.8979 26.4 40.2546 26.4 35.6ZM36.2264 20.8717C35.4619 20.8717 34.6973 20.8717 33.9216 20.8717C33.3144 20.8829 32.9772 21.164 32.9659 21.6587C32.9547 22.1646 33.2695 22.5132 33.8541 22.5132C35.4281 22.5357 36.9909 22.5357 38.5649 22.5132C39.1271 22.5019 39.5093 22.1197 39.4868 21.6587C39.4644 21.1865 39.0933 20.8717 38.5199 20.8717C37.7554 20.8717 36.9909 20.8717 36.2264 20.8717ZM36.2264 47.0791C35.3045 47.0791 34.5737 47.8099 34.5849 48.7093C34.5961 49.6087 35.3494 50.3395 36.2489 50.3283C37.1258 50.317 37.8341 49.5975 37.8341 48.7093C37.8454 47.7761 37.1483 47.0791 36.2264 47.0791Z" fill="#E60000"/>
<path d="M33.9216 20.3716V20.3717H33.9261H33.9307H33.9352H33.9397H33.9443H33.9488H33.9534H33.9579H33.9625H33.967H33.9716H33.9761H33.9806H33.9852H33.9897H33.9943H33.9988H34.0033H34.0079H34.0124H34.017H34.0215H34.026H34.0306H34.0351H34.0397H34.0442H34.0487H34.0533H34.0578H34.0624H34.0669H34.0714H34.076H34.0805H34.085H34.0896H34.0941H34.0986H34.1032H34.1077H34.1123H34.1168H34.1213H34.1259H34.1304H34.1349H34.1395H34.144H34.1485H34.1531H34.1576H34.1621H34.1667H34.1712H34.1757H34.1803H34.1848H34.1893H34.1939H34.1984H34.2029H34.2074H34.212H34.2165H34.221H34.2256H34.2301H34.2346H34.2391H34.2437H34.2482H34.2527H34.2573H34.2618H34.2663H34.2708H34.2754H34.2799H34.2844H34.289H34.2935H34.298H34.3025H34.3071H34.3116H34.3161H34.3206H34.3252H34.3297H34.3342H34.3387H34.3433H34.3478H34.3523H34.3568H34.3613H34.3659H34.3704H34.3749H34.3794H34.384H34.3885H34.393H34.3975H34.402H34.4066H34.4111H34.4156H34.4201H34.4246H34.4292H34.4337H34.4382H34.4427H34.4472H34.4518H34.4563H34.4608H34.4653H34.4698H34.4744H34.4789H34.4834H34.4879H34.4924H34.4969H34.5015H34.506H34.5105H34.515H34.5195H34.524H34.5286H34.5331H34.5376H34.5421H34.5466H34.5511H34.5556H34.5602H34.5647H34.5692H34.5737H34.5782H34.5827H34.5872H34.5918H34.5963H34.6008H34.6053H34.6098H34.6143H34.6188H34.6233H34.6279H34.6324H34.6369H34.6414H34.6459H34.6504H34.6549H34.6594H34.6639H34.6684H34.673H34.6775H34.682H34.6865H34.691H34.6955H34.7H34.7045H34.709H34.7135H34.718H34.7226H34.7271H34.7316H34.7361H34.7406H34.7451H34.7496H34.7541H34.7586H34.7631H34.7676H34.7721H34.7766H34.7811H34.7856H34.7902H34.7947H34.7992H34.8037H34.8082H34.8127H34.8172H34.8217H34.8262H34.8307H34.8352H34.8397H34.8442H34.8487H34.8532H34.8577H34.8622H34.8667H34.8712H34.8757H34.8802H34.8847H34.8892H34.8937H34.8982H34.9027H34.9072H34.9117H34.9162H34.9207H34.9252H34.9297H34.9342H34.9387H34.9432H34.9477H34.9522H34.9567H34.9612H34.9657H34.9702H34.9747H34.9792H34.9837H34.9882H34.9927H34.9972H35.0017H35.0062H35.0107H35.0152H35.0197H35.0242H35.0287H35.0332H35.0377H35.0422H35.0467H35.0512H35.0557H35.0602H35.0647H35.0692H35.0737H35.0782H35.0827H35.0872H35.0917H35.0962H35.1007H35.1052H35.1097H35.1142H35.1186H35.1231H35.1276H35.1321H35.1366H35.1411H35.1456H35.1501H35.1546H35.1591H35.1636H35.1681H35.1726H35.1771H35.1816H35.1861H35.1906H35.195H35.1995H35.204H35.2085H35.213H35.2175H35.222H35.2265H35.231H35.2355H35.24H35.2445H35.249H35.2534H35.2579H35.2624H35.2669H35.2714H35.2759H35.2804H35.2849H35.2894H35.2939H35.2984H35.3028H35.3073H35.3118H35.3163H35.3208H35.3253H35.3298H35.3343H35.3388H35.3433H35.3477H35.3522H35.3567H35.3612H35.3657H35.3702H35.3747H35.3792H35.3837H35.3881H35.3926H35.3971H35.4016H35.4061H35.4106H35.4151H35.4196H35.424H35.4285H35.433H35.4375H35.442H35.4465H35.451H35.4555H35.4599H35.4644H35.4689H35.4734H35.4779H35.4824H35.4869H35.4913H35.4958H35.5003H35.5048H35.5093H35.5138H35.5183H35.5228H35.5272H35.5317H35.5362H35.5407H35.5452H35.5497H35.5541H35.5586H35.5631H35.5676H35.5721H35.5766H35.5811H35.5855H35.59H35.5945H35.599H35.6035H35.608H35.6125H35.6169H35.6214H35.6259H35.6304H35.6349H35.6394H35.6438H35.6483H35.6528H35.6573H35.6618H35.6663H35.6707H35.6752H35.6797H35.6842H35.6887H35.6932H35.6976H35.7021H35.7066H35.7111H35.7156H35.7201H35.7245H35.729H35.7335H35.738H35.7425H35.747H35.7514H35.7559H35.7604H35.7649H35.7694H35.7738H35.7783H35.7828H35.7873H35.7918H35.7963H35.8007H35.8052H35.8097H35.8142H35.8187H35.8231H35.8276H35.8321H35.8366H35.8411H35.8456H35.85H35.8545H35.859H35.8635H35.868H35.8724H35.8769H35.8814H35.8859H35.8904H35.8948H35.8993H35.9038H35.9083H35.9128H35.9173H35.9217H35.9262H35.9307H35.9352H35.9397H35.9441H35.9486H35.9531H35.9576H35.9621H35.9665H35.971H35.9755H35.98H35.9845H35.9889H35.9934H35.9979H36.0024H36.0069H36.0113H36.0158H36.0203H36.0248H36.0293H36.0337H36.0382H36.0427H36.0472H36.0517H36.0561H36.0606H36.0651H36.0696H36.0741H36.0785H36.083H36.0875H36.092H36.0965H36.1009H36.1054H36.1099H36.1144H36.1189H36.1233H36.1278H36.1323H36.1368H36.1413H36.1457H36.1502H36.1547H36.1592H36.1637H36.1681H36.1726H36.1771H36.1816H36.1861H36.1905H36.195H36.1995H36.204H36.2085H36.2129H36.2174H36.2219H36.2264H36.2309H36.2353H36.2398H36.2443H36.2488H36.2533H36.2577H36.2622H36.2667H36.2712H36.2757H36.2801H36.2846H36.2891H36.2936H36.298H36.3025H36.307H36.3115H36.316H36.3204H36.3249H36.3294H36.3339H36.3384H36.3428H36.3473H36.3518H36.3563H36.3608H36.3652H36.3697H36.3742H36.3787H36.3832H36.3876H36.3921H36.3966H36.4011H36.4056H36.41H36.4145H36.419H36.4235H36.428H36.4324H36.4369H36.4414H36.4459H36.4504H36.4548H36.4593H36.4638H36.4683H36.4728H36.4772H36.4817H36.4862H36.4907H36.4952H36.4996H36.5041H36.5086H36.5131H36.5176H36.522H36.5265H36.531H36.5355H36.5399H36.5444H36.5489H36.5534H36.5579H36.5623H36.5668H36.5713H36.5758H36.5803H36.5847H36.5892H36.5937H36.5982H36.6027H36.6071H36.6116H36.6161H36.6206H36.6251H36.6295H36.634H36.6385H36.643H36.6475H36.6519H36.6564H36.6609H36.6654H36.6699H36.6743H36.6788H36.6833H36.6878H36.6923H36.6967H36.7012H36.7057H36.7102H36.7147H36.7191H36.7236H36.7281H36.7326H36.7371H36.7415H36.746H36.7505H36.755H36.7595H36.7639H36.7684H36.7729H36.7774H36.7818H36.7863H36.7908H36.7953H36.7998H36.8042H36.8087H36.8132H36.8177H36.8222H36.8266H36.8311H36.8356H36.8401H36.8446H36.849H36.8535H36.858H36.8625H36.867H36.8714H36.8759H36.8804H36.8849H36.8894H36.8938H36.8983H36.9028H36.9073H36.9118H36.9162H36.9207H36.9252H36.9297H36.9342H36.9386H36.9431H36.9476H36.9521H36.9566H36.961H36.9655H36.97H36.9745H36.979H36.9834H36.9879H36.9924H36.9969H37.0014H37.0058H37.0103H37.0148H37.0193H37.0237H37.0282H37.0327H37.0372H37.0417H37.0461H37.0506H37.0551H37.0596H37.0641H37.0685H37.073H37.0775H37.082H37.0865H37.0909H37.0954H37.0999H37.1044H37.1089H37.1133H37.1178H37.1223H37.1268H37.1313H37.1357H37.1402H37.1447H37.1492H37.1537H37.1581H37.1626H37.1671H37.1716H37.1761H37.1805H37.185H37.1895H37.194H37.1985H37.2029H37.2074H37.2119H37.2164H37.2209H37.2253H37.2298H37.2343H37.2388H37.2432H37.2477H37.2522H37.2567H37.2612H37.2656H37.2701H37.2746H37.2791H37.2836H37.288H37.2925H37.297H37.3015H37.306H37.3104H37.3149H37.3194H37.3239H37.3284H37.3328H37.3373H37.3418H37.3463H37.3508H37.3552H37.3597H37.3642H37.3687H37.3732H37.3776H37.3821H37.3866H37.3911H37.3956H37.4H37.4045H37.409H37.4135H37.418H37.4224H37.4269H37.4314H37.4359H37.4404H37.4448H37.4493H37.4538H37.4583H37.4628H37.4672H37.4717H37.4762H37.4807H37.4852H37.4896H37.4941H37.4986H37.5031H37.5075H37.512H37.5165H37.521H37.5255H37.5299H37.5344H37.5389H37.5434H37.5479H37.5523H37.5568H37.5613H37.5658H37.5703H37.5747H37.5792H37.5837H37.5882H37.5927H37.5971H37.6016H37.6061H37.6106H37.6151H37.6195H37.624H37.6285H37.633H37.6375H37.6419H37.6464H37.6509H37.6554H37.6599H37.6643H37.6688H37.6733H37.6778H37.6823H37.6867H37.6912H37.6957H37.7002H37.7047H37.7091H37.7136H37.7181H37.7226H37.727H37.7315H37.736H37.7405H37.745H37.7494H37.7539H37.7584H37.7629H37.7674H37.7718H37.7763H37.7808H37.7853H37.7898H37.7942H37.7987H37.8032H37.8077H37.8122H37.8166H37.8211H37.8256H37.8301H37.8346H37.839H37.8435H37.848H37.8525H37.857H37.8614H37.8659H37.8704H37.8749H37.8794H37.8838H37.8883H37.8928H37.8973H37.9018H37.9062H37.9107H37.9152H37.9197H37.9242H37.9286H37.9331H37.9376H37.9421H37.9466H37.951H37.9555H37.96H37.9645H37.9689H37.9734H37.9779H37.9824H37.9869H37.9913H37.9958H38.0003H38.0048H38.0093H38.0137H38.0182H38.0227H38.0272H38.0317H38.0361H38.0406H38.0451H38.0496H38.0541H38.0585H38.063H38.0675H38.072H38.0765H38.0809H38.0854H38.0899H38.0944H38.0989H38.1033H38.1078H38.1123H38.1168H38.1213H38.1257H38.1302H38.1347H38.1392H38.1437H38.1481H38.1526H38.1571H38.1616H38.1661H38.1705H38.175H38.1795H38.184H38.1885H38.1929H38.1974H38.2019H38.2064H38.2108H38.2153H38.2198H38.2243H38.2288H38.2332H38.2377H38.2422H38.2467H38.2512H38.2556H38.2601H38.2646H38.2691H38.2736H38.278H38.2825H38.287H38.2915H38.296H38.3004H38.3049H38.3094H38.3139H38.3184H38.3228H38.3273H38.3318H38.3363H38.3408H38.3452H38.3497H38.3542H38.3587H38.3632H38.3676H38.3721H38.3766H38.3811H38.3856H38.39H38.3945H38.399H38.4035H38.408H38.4124H38.4169H38.4214H38.4259H38.4304H38.4348H38.4393H38.4438H38.4483H38.4527H38.4572H38.4617H38.4662H38.4707H38.4751H38.4796H38.4841H38.4886H38.4931H38.4975H38.502H38.5065H38.511H38.5155H38.5199C38.8959 20.3717 39.2524 20.4753 39.5278 20.7022C39.8095 20.9341 39.9687 21.2652 39.9863 21.6349M33.9216 20.3716L39.4868 21.6587M33.9216 20.3716L33.9123 20.3718C33.5409 20.3787 33.18 20.4686 32.9018 20.6984C32.6101 20.9395 32.4744 21.2803 32.466 21.6473L32.466 21.6476C32.458 22.0077 32.5672 22.3634 32.833 22.6292C33.0974 22.8937 33.4601 23.0124 33.8503 23.0132M33.9216 20.3716L32.9659 21.6587M39.9863 21.6349L39.4868 21.6587M39.9863 21.6349C39.9863 21.6347 39.9863 21.6345 39.9862 21.6343L39.4868 21.6587M39.9863 21.6349C40.0249 22.4335 39.3586 22.9974 38.5749 23.0131L38.5721 23.0131C36.9944 23.0357 35.4279 23.0357 33.8503 23.0132M39.4868 21.6587C39.5093 22.1197 39.1271 22.5019 38.5649 22.5132C36.9909 22.5357 35.4281 22.5357 33.8541 22.5132M33.8503 23.0132C33.8516 23.0132 33.8528 23.0132 33.8541 23.0132V22.5132M33.8503 23.0132C33.8492 23.0132 33.8481 23.0131 33.847 23.0131L33.8541 22.5132M33.8541 22.5132C33.2695 22.5132 32.9547 22.1646 32.9659 21.6587M32.9659 21.6587C32.9772 21.164 33.3144 20.8829 33.9216 20.8717L32.9659 21.6587ZM26.9 21.6599V21.6587C26.9 19.9445 27.7454 18.7561 29.2189 18.278L29.2189 18.278L29.2227 18.2767C29.5661 18.1623 29.9494 18.1112 30.3351 18.1112L30.3365 18.1112C34.2592 18.1 38.1818 18.1 42.0932 18.1112C44.1043 18.1214 45.5415 19.5547 45.5415 21.5463V21.5469C45.5527 30.9231 45.5527 40.2881 45.5415 49.6644V49.665C45.5415 51.6599 44.1014 53.1 42.1065 53.1L42.105 53.1C38.2271 53.1112 34.3493 53.1112 30.4714 53.1H30.47C29.3675 53.1 28.4892 52.7397 27.8866 52.1408C27.2843 51.542 26.9164 50.6637 26.9113 49.5502L26.9113 49.5501C26.8944 46.061 26.8965 42.5787 26.8986 39.0916C26.8993 37.9284 26.9 36.7647 26.9 35.6C26.9 34.0518 26.8988 32.5027 26.8975 30.9535C26.895 27.8547 26.8925 24.7551 26.9 21.6599ZM36.2551 50.8283L36.2553 50.8282C37.4079 50.8135 38.3325 49.8697 38.3341 48.7123C38.3472 47.5011 37.4247 46.5791 36.2264 46.5791C35.0341 46.5791 34.0701 47.5294 34.0849 48.7156C34.0997 49.8927 35.0811 50.8429 36.2551 50.8283Z" stroke="#E60000"/>
</g>
</g>
<defs>
<filter id="filter0_b_184_842" x="14.395" y="5.60281" width="43.6549" height="60.0056" filterUnits="userSpaceOnUse" color-interpolation-filters="sRGB">
<feFlood flood-opacity="0" result="BackgroundImageFix"/>
<feGaussianBlur in="BackgroundImageFix" stdDeviation="6"/>
<feComposite in2="SourceAlpha" operator="in" result="effect1_backgroundBlur_184_842"/>
<feBlend mode="normal" in="SourceGraphic" in2="effect1_backgroundBlur_184_842" result="shape"/>
</filter>
<clipPath id="clip0_184_842">
<rect width="19.6415" height="36" fill="white" transform="translate(26.4 17.6)"/>
</clipPath>
</defs>
</svg>
