<svg width="73" height="72" viewBox="0 0 73 72" fill="none" xmlns="http://www.w3.org/2000/svg">
<rect x="1.16675" y="0.5" width="71" height="71" rx="11.5" fill="#141414"/>
<rect x="1.16675" y="0.5" width="71" height="71" rx="11.5" stroke="#1F1F1F"/>
<g clip-path="url(#clip0_184_858)">
<g filter="url(#filter0_b_184_858)">
<mask id="path-2-inside-1_184_858" fill="white">
<path fill-rule="evenodd" clip-rule="evenodd" d="M19.4668 39.3457V39.8257C31.0411 39.8257 42.5372 39.8257 54.078 39.8146V39.3345V24.3184C54.078 23.2689 53.6092 22.8 52.5377 22.8H21.0071C19.9244 22.8 19.4668 23.2689 19.4668 24.3295V39.3457ZM35.7237 34.2975C35.2571 34.5674 34.7873 34.8392 34.3113 35.1144V28.5497C35.5193 29.2533 36.7092 29.9389 37.9126 30.6323C38.5995 31.028 39.2908 31.4263 39.9924 31.832C38.5459 32.6649 37.15 33.4724 35.7237 34.2975ZM48.6771 45.8188C48.5668 45.5482 48.4539 45.2712 48.341 44.9837H48.3418C49.8482 44.9837 51.2655 44.9837 52.6604 44.9725C53.4194 44.9614 53.9998 44.5371 54.0332 43.8561C54.0718 43.2079 54.0624 42.5543 54.0529 41.8954C54.0487 41.6011 54.0444 41.3057 54.0444 41.0092H19.4556V43.376C19.4556 44.5036 19.9243 44.9725 21.0405 44.9725H25.1813C24.8354 45.8431 24.5118 46.6468 24.1882 47.4504L24.188 47.451C24.054 47.8083 23.9982 48.1655 24.4447 48.333C24.88 48.5005 25.092 48.2102 25.2371 47.8529C25.3352 47.6109 25.4352 47.3699 25.5351 47.129C25.7764 46.5474 26.0174 45.9665 26.2305 45.3744C26.3532 45.0507 26.5207 44.9725 26.8443 44.9725C33.463 44.9837 40.0816 44.9837 46.7003 44.9725C47.0463 44.9725 47.1914 45.0842 47.303 45.3968C47.5562 46.0689 47.8264 46.7241 48.0988 47.3845C48.1385 47.481 48.1784 47.5775 48.2182 47.6743C48.2461 47.7357 48.2712 47.7943 48.2963 47.8529C48.3215 47.9116 48.3466 47.9702 48.3745 48.0316C48.5196 48.3553 48.8209 48.5116 49.0888 48.3218C49.2674 48.199 49.4236 47.8083 49.3567 47.6073C49.1632 47.0112 48.9267 46.4312 48.6771 45.8188ZM40.9857 43.2085H36.7444C36.276 43.2085 35.8064 43.2073 35.3364 43.2061C34.3952 43.2036 33.4522 43.2011 32.5143 43.2085C32.1348 43.2085 31.7665 43.1639 31.7553 42.6838C31.7441 42.1926 32.1125 42.0921 32.5254 42.0921H40.9969C41.3987 42.0921 41.7781 42.1814 41.7781 42.6727C41.7781 43.1862 41.3763 43.2085 40.9857 43.2085Z"/>
</mask>
<path fill-rule="evenodd" clip-rule="evenodd" d="M19.4668 39.3457V39.8257C31.0411 39.8257 42.5372 39.8257 54.078 39.8146V39.3345V24.3184C54.078 23.2689 53.6092 22.8 52.5377 22.8H21.0071C19.9244 22.8 19.4668 23.2689 19.4668 24.3295V39.3457ZM35.7237 34.2975C35.2571 34.5674 34.7873 34.8392 34.3113 35.1144V28.5497C35.5193 29.2533 36.7092 29.9389 37.9126 30.6323C38.5995 31.028 39.2908 31.4263 39.9924 31.832C38.5459 32.6649 37.15 33.4724 35.7237 34.2975ZM48.6771 45.8188C48.5668 45.5482 48.4539 45.2712 48.341 44.9837H48.3418C49.8482 44.9837 51.2655 44.9837 52.6604 44.9725C53.4194 44.9614 53.9998 44.5371 54.0332 43.8561C54.0718 43.2079 54.0624 42.5543 54.0529 41.8954C54.0487 41.6011 54.0444 41.3057 54.0444 41.0092H19.4556V43.376C19.4556 44.5036 19.9243 44.9725 21.0405 44.9725H25.1813C24.8354 45.8431 24.5118 46.6468 24.1882 47.4504L24.188 47.451C24.054 47.8083 23.9982 48.1655 24.4447 48.333C24.88 48.5005 25.092 48.2102 25.2371 47.8529C25.3352 47.6109 25.4352 47.3699 25.5351 47.129C25.7764 46.5474 26.0174 45.9665 26.2305 45.3744C26.3532 45.0507 26.5207 44.9725 26.8443 44.9725C33.463 44.9837 40.0816 44.9837 46.7003 44.9725C47.0463 44.9725 47.1914 45.0842 47.303 45.3968C47.5562 46.0689 47.8264 46.7241 48.0988 47.3845C48.1385 47.481 48.1784 47.5775 48.2182 47.6743C48.2461 47.7357 48.2712 47.7943 48.2963 47.8529C48.3215 47.9116 48.3466 47.9702 48.3745 48.0316C48.5196 48.3553 48.8209 48.5116 49.0888 48.3218C49.2674 48.199 49.4236 47.8083 49.3567 47.6073C49.1632 47.0112 48.9267 46.4312 48.6771 45.8188ZM40.9857 43.2085H36.7444C36.276 43.2085 35.8064 43.2073 35.3364 43.2061C34.3952 43.2036 33.4522 43.2011 32.5143 43.2085C32.1348 43.2085 31.7665 43.1639 31.7553 42.6838C31.7441 42.1926 32.1125 42.0921 32.5254 42.0921H40.9969C41.3987 42.0921 41.7781 42.1814 41.7781 42.6727C41.7781 43.1862 41.3763 43.2085 40.9857 43.2085Z" fill="#E60000"/>
<path d="M19.4668 39.8257H18.4668V40.8257H19.4668V39.8257ZM54.078 39.8146L54.079 40.8146L55.078 40.8136V39.8146H54.078ZM34.3113 35.1144H33.3113V36.8477L34.8119 35.9801L34.3113 35.1144ZM35.7237 34.2975L35.2229 33.4319L35.7237 34.2975ZM34.3113 28.5497L34.8147 27.6856L33.3113 26.8099V28.5497H34.3113ZM37.9126 30.6323L38.4118 29.7658V29.7658L37.9126 30.6323ZM39.9924 31.832L40.4914 32.6986L41.9934 31.8339L40.493 30.9663L39.9924 31.832ZM48.341 44.9837V43.9837H46.8739L47.4102 45.3493L48.341 44.9837ZM48.6771 45.8188L49.6032 45.4414L49.6032 45.4414L48.6771 45.8188ZM52.6604 44.9725L52.6684 45.9725L52.6751 45.9724L52.6604 44.9725ZM54.0332 43.8561L53.035 43.7967L53.0344 43.807L54.0332 43.8561ZM54.0529 41.8954L55.0528 41.881V41.881L54.0529 41.8954ZM54.0444 41.0092H55.0444V40.0092H54.0444V41.0092ZM19.4556 41.0092V40.0092H18.4556V41.0092H19.4556ZM25.1813 44.9725L26.1106 45.3418L26.6547 43.9725H25.1813V44.9725ZM24.1882 47.4504L23.2606 47.0769L23.2606 47.0769L24.1882 47.4504ZM24.188 47.451L23.2603 47.0775L23.2558 47.0887L23.2516 47.1L24.188 47.451ZM24.4447 48.333L24.8037 47.3997L24.7959 47.3967L24.4447 48.333ZM25.2371 47.8529L26.1636 48.2292L26.1639 48.2286L25.2371 47.8529ZM25.5351 47.129L26.4588 47.5122L26.4588 47.5122L25.5351 47.129ZM26.2305 45.3744L25.2954 45.0199L25.2924 45.0278L25.2896 45.0358L26.2305 45.3744ZM26.8443 44.9725L26.846 43.9725H26.8443V44.9725ZM46.7003 44.9725V43.9725L46.6986 43.9725L46.7003 44.9725ZM47.303 45.3968L46.3612 45.733L46.3641 45.7412L46.3672 45.7493L47.303 45.3968ZM48.0988 47.3845L49.0232 47.0032L49.0232 47.0032L48.0988 47.3845ZM48.2182 47.6743L47.2935 48.055L47.3003 48.0716L47.3078 48.088L48.2182 47.6743ZM48.3745 48.0316L49.287 47.6226L49.2849 47.6179L48.3745 48.0316ZM49.0888 48.3218L48.5221 47.4978L48.5107 47.5059L49.0888 48.3218ZM49.3567 47.6073L48.4055 47.9161L48.408 47.9235L49.3567 47.6073ZM35.3364 43.2061L35.3391 42.2061H35.3391L35.3364 43.2061ZM32.5143 43.2085V44.2086L32.5222 44.2085L32.5143 43.2085ZM31.7553 42.6838L30.7556 42.7065L30.7556 42.7071L31.7553 42.6838ZM20.4668 39.8257V39.3457H18.4668V39.8257H20.4668ZM54.077 38.8146C42.5368 38.8257 31.0412 38.8257 19.4668 38.8257V40.8257C31.041 40.8257 42.5376 40.8257 54.079 40.8146L54.077 38.8146ZM53.078 39.3345V39.8146H55.078V39.3345H53.078ZM53.078 24.3184V39.3345H55.078V24.3184H53.078ZM52.5377 23.8C52.9526 23.8 53.0239 23.8939 53.0064 23.8766C52.9864 23.8568 53.078 23.9194 53.078 24.3184H55.078C55.078 23.6679 54.9352 22.9713 54.4129 22.4547C53.8931 21.9405 53.1943 21.8 52.5377 21.8V23.8ZM21.0071 23.8H52.5377V21.8H21.0071V23.8ZM20.4668 24.3295C20.4668 23.9166 20.5594 23.8528 20.5382 23.874C20.517 23.8952 20.5837 23.8 21.0071 23.8V21.8C20.3478 21.8 19.6444 21.9393 19.1238 22.46C18.603 22.9809 18.4668 23.6818 18.4668 24.3295H20.4668ZM20.4668 39.3457V24.3295H18.4668V39.3457H20.4668ZM34.8119 35.9801C35.2879 35.7048 35.7579 35.433 36.2244 35.1631L35.2229 33.4319C34.7564 33.7018 34.2866 33.9735 33.8108 34.2486L34.8119 35.9801ZM33.3113 28.5497V35.1144H35.3113V28.5497H33.3113ZM38.4118 29.7658C37.2081 29.0722 36.0203 28.3879 34.8147 27.6856L33.808 29.4138C35.0184 30.1188 36.2103 30.8055 37.4134 31.4987L38.4118 29.7658ZM40.493 30.9663C39.7906 30.5602 39.0986 30.1615 38.4118 29.7658L37.4134 31.4987C38.1004 31.8946 38.791 32.2925 39.4919 32.6977L40.493 30.9663ZM36.2244 35.1631C37.6509 34.3379 39.0459 33.5309 40.4914 32.6986L39.4935 30.9654C38.0459 31.7988 36.6491 32.6068 35.2229 33.4319L36.2244 35.1631ZM47.4102 45.3493C47.5258 45.6436 47.6411 45.9264 47.7511 46.1963L49.6032 45.4414C49.4925 45.1699 49.382 44.8987 49.2718 44.6181L47.4102 45.3493ZM48.3418 43.9837H48.341V45.9837H48.3418V43.9837ZM52.6524 43.9726C51.2622 43.9837 49.849 43.9837 48.3418 43.9837V45.9837C49.8475 45.9837 51.2688 45.9837 52.6684 45.9725L52.6524 43.9726ZM53.0344 43.807C53.0329 43.838 53.0266 43.8502 53.0252 43.8528C53.0234 43.8562 53.0179 43.8659 52.9996 43.8804C52.9597 43.9118 52.8499 43.9696 52.6457 43.9726L52.6751 45.9724C53.7687 45.9563 54.9641 45.2862 55.032 43.9052L53.0344 43.807ZM53.053 41.9098C53.0626 42.5752 53.071 43.1916 53.035 43.7967L55.0315 43.9155C55.0726 43.2242 55.0622 42.5335 55.0528 41.881L53.053 41.9098ZM53.0444 41.0092C53.0444 41.314 53.0488 41.6167 53.053 41.9099L55.0528 41.881C55.0485 41.5855 55.0444 41.2973 55.0444 41.0092H53.0444ZM19.4556 42.0092H54.0444V40.0092H19.4556V42.0092ZM20.4556 43.376V41.0092H18.4556V43.376H20.4556ZM21.0405 43.9725C20.8262 43.9725 20.6927 43.9494 20.615 43.9255C20.5781 43.9142 20.5577 43.904 20.5483 43.8985C20.5435 43.8958 20.541 43.8939 20.5399 43.8931C20.5393 43.8927 20.539 43.8924 20.5388 43.8923C20.5387 43.8921 20.5386 43.8921 20.5386 43.892C20.5386 43.892 20.5385 43.8919 20.5383 43.8917C20.5381 43.8915 20.5378 43.8911 20.5373 43.8905C20.5363 43.8892 20.5343 43.8863 20.5313 43.8811C20.5255 43.8709 20.5149 43.8494 20.5033 43.8111C20.4789 43.7306 20.4556 43.5939 20.4556 43.376H18.4556C18.4556 44.048 18.5905 44.7693 19.1204 45.3022C19.6516 45.8365 20.3719 45.9725 21.0405 45.9725V43.9725ZM25.1813 43.9725H21.0405V45.9725H25.1813V43.9725ZM25.1158 47.8239C25.4393 47.0205 25.7638 46.2148 26.1106 45.3418L24.252 44.6033C23.907 45.4714 23.5843 46.273 23.2606 47.0769L25.1158 47.8239ZM25.1156 47.8245L25.1158 47.8239L23.2606 47.0769L23.2603 47.0775L25.1156 47.8245ZM24.7959 47.3967C24.7989 47.3979 24.8692 47.425 24.946 47.5118C25.0287 47.6051 25.0712 47.7135 25.0858 47.8032C25.0982 47.8801 25.0872 47.9231 25.0897 47.9102C25.0921 47.8985 25.1004 47.8658 25.1243 47.8021L23.2516 47.1C23.1786 47.2947 23.0412 47.6891 23.1116 48.1232C23.1512 48.3678 23.2552 48.6192 23.4487 48.8378C23.6365 49.0498 23.8672 49.1844 24.0935 49.2693L24.7959 47.3967ZM24.3106 47.4767C24.287 47.5349 24.2718 47.5619 24.2669 47.5697C24.2615 47.5782 24.2824 47.5413 24.3412 47.4962C24.4087 47.4444 24.5064 47.3978 24.6215 47.385C24.7298 47.373 24.7972 47.3972 24.8037 47.3997L24.0856 49.2663C24.5796 49.4564 25.1176 49.4212 25.5583 49.0833C25.9069 48.8159 26.0783 48.4394 26.1636 48.2292L24.3106 47.4767ZM24.6115 46.7458C24.5118 46.9861 24.4102 47.2309 24.3103 47.4773L26.1639 48.2286C26.2602 47.991 26.3586 47.7537 26.4588 47.5122L24.6115 46.7458ZM25.2896 45.0358C25.0859 45.6017 24.8543 46.1605 24.6115 46.7458L26.4588 47.5122C26.6985 46.9343 26.9489 46.3314 27.1714 45.7131L25.2896 45.0358ZM26.8443 43.9725C26.6272 43.9725 26.2761 43.9926 25.9385 44.2001C25.5795 44.4207 25.3981 44.749 25.2954 45.0199L27.1655 45.729C27.1856 45.6761 27.1493 45.8035 26.9856 45.9041C26.8433 45.9915 26.7378 45.9725 26.8443 45.9725V43.9725ZM46.6986 43.9725C40.0811 43.9837 33.4635 43.9837 26.846 43.9725L26.8427 45.9725C33.4624 45.9837 40.0822 45.9837 46.702 45.9725L46.6986 43.9725ZM48.2448 45.0605C48.1619 44.8283 48.0087 44.4959 47.672 44.2546C47.3329 44.0116 46.9642 43.9725 46.7003 43.9725V45.9725C46.7824 45.9725 46.6592 45.9893 46.507 45.8803C46.3573 45.773 46.3325 45.6526 46.3612 45.733L48.2448 45.0605ZM49.0232 47.0032C48.7499 46.3406 48.4857 45.6996 48.2388 45.0442L46.3672 45.7493C46.6267 46.4383 46.9029 47.1076 47.1743 47.7658L49.0232 47.0032ZM49.1429 47.2937C49.1029 47.1965 49.063 47.0996 49.0232 47.0032L47.1743 47.7658C47.2141 47.8623 47.2538 47.9586 47.2935 48.055L49.1429 47.2937ZM49.2155 47.4591C49.1909 47.4018 49.1617 47.3334 49.1286 47.2606L47.3078 48.088C47.3305 48.138 47.3515 48.1869 47.3772 48.2468L49.2155 47.4591ZM49.2849 47.6179C49.2622 47.5679 49.2412 47.519 49.2155 47.4591L47.3772 48.2468C47.4017 48.3041 47.431 48.3725 47.4641 48.4453L49.2849 47.6179ZM48.5107 47.5059C48.5717 47.4626 48.6646 47.4194 48.7828 47.4073C48.9002 47.3953 49.0061 47.4178 49.0881 47.4539C49.2414 47.5213 49.2849 47.6179 49.287 47.6226L47.4619 48.4405C47.6091 48.769 47.8758 49.1056 48.2831 49.2847C48.7329 49.4825 49.2474 49.435 49.6669 49.1378L48.5107 47.5059ZM48.408 47.9235C48.3616 47.7844 48.3732 47.6849 48.3753 47.6673C48.3787 47.6391 48.3833 47.63 48.3812 47.6356C48.3793 47.6405 48.3794 47.6378 48.388 47.6251C48.3916 47.6197 48.4305 47.5609 48.5222 47.4979L49.6554 49.1458C49.9837 48.9201 50.1626 48.5759 50.2484 48.3522C50.3286 48.1434 50.4496 47.7241 50.3054 47.2912L48.408 47.9235ZM47.7511 46.1963C48.0032 46.8148 48.2253 47.3607 48.4055 47.9161L50.3078 47.2986C50.1011 46.6617 49.8503 46.0476 49.6032 45.4414L47.7511 46.1963ZM36.7444 44.2085H40.9857V42.2085H36.7444V44.2085ZM35.3338 44.2061C35.8036 44.2073 36.2745 44.2085 36.7444 44.2085V42.2085C36.2776 42.2085 35.8093 42.2073 35.3391 42.2061L35.3338 44.2061ZM32.5222 44.2085C33.454 44.2011 34.3916 44.2036 35.3338 44.2061L35.3391 42.2061C34.3987 42.2036 33.4505 42.2011 32.5063 42.2086L32.5222 44.2085ZM30.7556 42.7071C30.7613 42.9533 30.8149 43.2222 30.9625 43.4741C31.1145 43.7333 31.3276 43.9086 31.5458 44.0188C31.9244 44.21 32.3372 44.2085 32.5143 44.2085V42.2085C32.4335 42.2085 32.3912 42.2057 32.3687 42.2028C32.3447 42.1996 32.3827 42.2009 32.4475 42.2336C32.5248 42.2727 32.62 42.3468 32.6879 42.4626C32.7515 42.571 32.7549 42.6544 32.755 42.6606L30.7556 42.7071ZM32.5254 41.0921C32.2806 41.0921 31.8501 41.1132 31.4618 41.3493C30.9689 41.649 30.7432 42.1602 30.7556 42.7065L32.755 42.6611C32.7551 42.6632 32.756 42.7342 32.7065 42.8328C32.6536 42.9382 32.5738 43.0139 32.5008 43.0582C32.4379 43.0965 32.3975 43.1013 32.4112 43.0988C32.4235 43.0965 32.4586 43.0921 32.5254 43.0921V41.0921ZM40.9969 41.0921H32.5254V43.0921H40.9969V41.0921ZM42.7781 42.6727C42.7781 42.4211 42.7291 42.1523 42.5923 41.8993C42.4526 41.6408 42.252 41.4556 42.038 41.332C41.6522 41.1094 41.2299 41.0921 40.9969 41.0921V43.0921C41.0643 43.0921 41.1013 43.0962 41.1167 43.0989C41.1336 43.1018 41.0976 43.0985 41.0383 43.0643C40.9694 43.0245 40.8888 42.9538 40.8328 42.8501C40.7798 42.752 40.7781 42.6786 40.7781 42.6727H42.7781ZM40.9857 44.2085C41.1407 44.2085 41.568 44.2185 41.9519 44.0391C42.179 43.933 42.4088 43.7558 42.5709 43.4806C42.7278 43.2142 42.7781 42.9292 42.7781 42.6727H40.7781C40.7781 42.6724 40.7781 42.6505 40.7869 42.6133C40.796 42.5749 40.8139 42.5228 40.8476 42.4655C40.9222 42.339 41.0271 42.2636 41.105 42.2273C41.1681 42.1977 41.2014 42.1991 41.1657 42.2029C41.1317 42.2067 41.0806 42.2085 40.9857 42.2085V44.2085Z" fill="#E60000" mask="url(#path-2-inside-1_184_858)"/>
</g>
</g>
<defs>
<filter id="filter0_b_184_858" x="7.45557" y="10.8" width="58.6223" height="49.604" filterUnits="userSpaceOnUse" color-interpolation-filters="sRGB">
<feFlood flood-opacity="0" result="BackgroundImageFix"/>
<feGaussianBlur in="BackgroundImageFix" stdDeviation="6"/>
<feComposite in2="SourceAlpha" operator="in" result="effect1_backgroundBlur_184_858"/>
<feBlend mode="normal" in="SourceGraphic" in2="effect1_backgroundBlur_184_858" result="shape"/>
</filter>
<clipPath id="clip0_184_858">
<rect width="34.6" height="25.6" fill="white" transform="translate(19.4668 22.8)"/>
</clipPath>
</defs>
</svg>
