<svg width="73" height="72" viewBox="0 0 73 72" fill="none" xmlns="http://www.w3.org/2000/svg">
<rect x="1.16675" y="0.5" width="71" height="71" rx="11.5" fill="#141414"/>
<rect x="1.16675" y="0.5" width="71" height="71" rx="11.5" stroke="#1F1F1F"/>
<g clip-path="url(#clip0_184_882)">
<g filter="url(#filter0_b_184_882)">
<mask id="path-2-inside-1_184_882" fill="white">
<path fill-rule="evenodd" clip-rule="evenodd" d="M35.9782 28.5942C36.2697 28.593 36.5609 28.5918 36.8509 28.5918C37.1511 28.5918 37.4524 28.593 37.7544 28.5942C38.3609 28.5965 38.9705 28.5988 39.5801 28.5918C40.5248 28.5709 41.0601 28.0358 41.0706 27.0811C41.0811 26.2418 41.0811 25.4025 41.0706 24.5632C41.0706 23.5665 40.5143 23 39.5171 23H34.2163C33.2296 23.0105 32.6837 23.5665 32.6732 24.5737V27.0391C32.6732 28.0463 33.2086 28.5813 34.2268 28.5918C34.808 28.5988 35.3938 28.5965 35.9782 28.5942ZM47.7781 31.4035H36.8615H25.9974C24.003 31.4035 22.9008 32.5051 22.8798 34.5194C22.8693 35.4007 22.6699 35.6 21.7987 35.6C21.7563 35.6 21.7151 35.5988 21.6743 35.5976C21.5938 35.5953 21.5149 35.593 21.4313 35.6C20.6545 35.6525 20.0877 36.198 20.0772 36.9848C20.0667 38.8523 20.0667 40.7302 20.0877 42.5977C20.0877 43.4055 20.665 43.951 21.4838 43.993H22.0086C22.6174 44.014 22.8588 44.2448 22.8903 44.8533V45.3254C22.9218 47.025 24.087 48.179 25.7874 48.1895C27.152 48.2 28.5166 48.2 29.8811 48.1895C31.1093 48.1895 32.2219 47.8223 33.2086 47.0984C33.5602 46.8361 33.9092 46.5739 34.2582 46.3116C34.6073 46.0493 34.9563 45.787 35.3079 45.5247C36.4101 44.7064 37.3758 44.7064 38.478 45.5352C38.7919 45.7659 39.1038 46.0007 39.4164 46.236C39.8145 46.5356 40.2136 46.836 40.6193 47.1299C41.3436 47.6649 42.1518 48.0636 43.065 48.1056C44.4337 48.1698 45.8103 48.1779 47.188 48.1859C47.3847 48.187 47.5814 48.1882 47.7781 48.1895C49.7094 48.2 50.8536 47.0669 50.8641 45.147C50.8746 44.1609 51.0425 43.993 52.0292 43.993C53.1314 43.993 53.6772 43.4579 53.6772 42.3669V37.2261C53.6772 36.135 53.1314 35.6 52.0292 35.6C51.0425 35.5895 50.8746 35.4321 50.8641 34.446C50.8431 32.5261 49.7094 31.4035 47.7781 31.4035Z"/>
</mask>
<path fill-rule="evenodd" clip-rule="evenodd" d="M35.9782 28.5942C36.2697 28.593 36.5609 28.5918 36.8509 28.5918C37.1511 28.5918 37.4524 28.593 37.7544 28.5942C38.3609 28.5965 38.9705 28.5988 39.5801 28.5918C40.5248 28.5709 41.0601 28.0358 41.0706 27.0811C41.0811 26.2418 41.0811 25.4025 41.0706 24.5632C41.0706 23.5665 40.5143 23 39.5171 23H34.2163C33.2296 23.0105 32.6837 23.5665 32.6732 24.5737V27.0391C32.6732 28.0463 33.2086 28.5813 34.2268 28.5918C34.808 28.5988 35.3938 28.5965 35.9782 28.5942ZM47.7781 31.4035H36.8615H25.9974C24.003 31.4035 22.9008 32.5051 22.8798 34.5194C22.8693 35.4007 22.6699 35.6 21.7987 35.6C21.7563 35.6 21.7151 35.5988 21.6743 35.5976C21.5938 35.5953 21.5149 35.593 21.4313 35.6C20.6545 35.6525 20.0877 36.198 20.0772 36.9848C20.0667 38.8523 20.0667 40.7302 20.0877 42.5977C20.0877 43.4055 20.665 43.951 21.4838 43.993H22.0086C22.6174 44.014 22.8588 44.2448 22.8903 44.8533V45.3254C22.9218 47.025 24.087 48.179 25.7874 48.1895C27.152 48.2 28.5166 48.2 29.8811 48.1895C31.1093 48.1895 32.2219 47.8223 33.2086 47.0984C33.5602 46.8361 33.9092 46.5739 34.2582 46.3116C34.6073 46.0493 34.9563 45.787 35.3079 45.5247C36.4101 44.7064 37.3758 44.7064 38.478 45.5352C38.7919 45.7659 39.1038 46.0007 39.4164 46.236C39.8145 46.5356 40.2136 46.836 40.6193 47.1299C41.3436 47.6649 42.1518 48.0636 43.065 48.1056C44.4337 48.1698 45.8103 48.1779 47.188 48.1859C47.3847 48.187 47.5814 48.1882 47.7781 48.1895C49.7094 48.2 50.8536 47.0669 50.8641 45.147C50.8746 44.1609 51.0425 43.993 52.0292 43.993C53.1314 43.993 53.6772 43.4579 53.6772 42.3669V37.2261C53.6772 36.135 53.1314 35.6 52.0292 35.6C51.0425 35.5895 50.8746 35.4321 50.8641 34.446C50.8431 32.5261 49.7094 31.4035 47.7781 31.4035Z" fill="#E60000"/>
<path d="M35.9782 28.5942L35.9742 27.5942H35.9742L35.9782 28.5942ZM37.7544 28.5942L37.7583 27.5942L37.7544 28.5942ZM39.5801 28.5918L39.5916 29.5918L39.6023 29.5916L39.5801 28.5918ZM41.0706 27.0811L40.0707 27.0686L40.0707 27.0701L41.0706 27.0811ZM41.0706 24.5632H40.0705L40.0707 24.5757L41.0706 24.5632ZM34.2163 23V21.9999L34.2056 22.0001L34.2163 23ZM32.6732 24.5737L31.6732 24.5633V24.5737H32.6732ZM34.2268 28.5918L34.2388 27.5919L34.2371 27.5919L34.2268 28.5918ZM22.8798 34.5194L23.8798 34.5313L23.8798 34.5298L22.8798 34.5194ZM21.6743 35.5976L21.7031 34.598L21.7031 34.598L21.6743 35.5976ZM21.4313 35.6L21.4987 36.5977L21.5065 36.5972L21.5143 36.5965L21.4313 35.6ZM20.0772 36.9848L19.0773 36.9715L19.0772 36.9792L20.0772 36.9848ZM20.0877 42.5977H21.0878L21.0876 42.5864L20.0877 42.5977ZM21.4838 43.993L21.4326 44.9917L21.4582 44.993H21.4838V43.993ZM22.0086 43.993L22.043 42.9936L22.0258 42.993H22.0086V43.993ZM22.8903 44.8533H23.8903V44.8274L23.889 44.8016L22.8903 44.8533ZM22.8903 45.3254H21.8903V45.3347L21.8905 45.3439L22.8903 45.3254ZM25.7874 48.1895L25.7951 47.1895L25.7936 47.1895L25.7874 48.1895ZM29.8811 48.1895V47.1895L29.8735 47.1895L29.8811 48.1895ZM33.2086 47.0984L33.8002 47.9047L33.8065 47.9L33.2086 47.0984ZM34.2582 46.3116L33.6575 45.5122L33.6575 45.5122L34.2582 46.3116ZM35.3079 45.5247L34.7118 44.7218L34.7101 44.7231L35.3079 45.5247ZM38.478 45.5352L37.8769 46.3345L37.8858 46.341L38.478 45.5352ZM39.4164 46.236L38.815 47.035V47.035L39.4164 46.236ZM40.6193 47.1299L41.2135 46.3255L41.2059 46.32L40.6193 47.1299ZM43.065 48.1056L43.1119 47.1067L43.1109 47.1066L43.065 48.1056ZM47.188 48.1859L47.1822 49.1859H47.1822L47.188 48.1859ZM47.7781 48.1895L47.7714 49.1895L47.7726 49.1895L47.7781 48.1895ZM50.8641 45.147L49.8641 45.1364L49.8641 45.1416L50.8641 45.147ZM52.0292 35.6L52.0186 36.6H52.0292V35.6ZM50.8641 34.446L51.864 34.4353L51.864 34.435L50.8641 34.446ZM36.8509 27.5918C36.5586 27.5918 36.2654 27.593 35.9742 27.5942L35.9821 29.5942C36.2741 29.593 36.5632 29.5918 36.8509 29.5918V27.5918ZM37.7583 27.5942C37.4565 27.593 37.1533 27.5918 36.8509 27.5918V29.5918C37.1488 29.5918 37.4482 29.593 37.7506 29.5942L37.7583 27.5942ZM39.5686 27.5919C38.9679 27.5988 38.366 27.5965 37.7583 27.5942L37.7506 29.5942C38.3558 29.5965 38.973 29.5989 39.5916 29.5918L39.5686 27.5919ZM40.0707 27.0701C40.0674 27.365 39.9876 27.4603 39.9651 27.483C39.9423 27.506 39.8485 27.5856 39.5579 27.5921L39.6023 29.5916C40.2564 29.5771 40.9025 29.3787 41.3862 28.8903C41.8702 28.4015 42.0633 27.7519 42.0706 27.0921L40.0707 27.0701ZM40.0707 24.5757C40.0811 25.4067 40.0811 26.2376 40.0707 27.0686L42.0705 27.0936C42.0811 26.246 42.0811 25.3983 42.0705 24.5507L40.0707 24.5757ZM39.5171 24C39.8288 24 39.9311 24.0851 39.9574 24.1116C39.9851 24.1396 40.0706 24.2467 40.0706 24.5632H42.0706C42.0706 23.883 41.878 23.2085 41.3782 22.7041C40.877 22.1981 40.2026 22 39.5171 22V24ZM34.2163 24H39.5171V22H34.2163V24ZM33.6732 24.5841C33.6766 24.2535 33.7643 24.1422 33.7926 24.1133C33.8181 24.0874 33.917 24.0032 34.2269 23.9999L34.2056 22.0001C33.5289 22.0073 32.8615 22.2064 32.3648 22.7129C31.8708 23.2165 31.6803 23.8867 31.6733 24.5633L33.6732 24.5841ZM33.6732 27.0391V24.5737H31.6732V27.0391H33.6732ZM34.2371 27.5919C33.8928 27.5883 33.7925 27.4993 33.7751 27.4819C33.7595 27.4663 33.6732 27.3722 33.6732 27.0391H31.6732C31.6732 27.7132 31.8547 28.3902 32.3613 28.8965C32.8661 29.4011 33.5426 29.5848 34.2165 29.5918L34.2371 27.5919ZM35.9742 27.5942C35.3885 27.5965 34.8106 27.5988 34.2388 27.5919L34.2147 29.5918C34.8053 29.5989 35.3992 29.5965 35.9821 29.5942L35.9742 27.5942ZM36.8615 32.4035H47.7781V30.4035H36.8615V32.4035ZM25.9974 32.4035H36.8615V30.4035H25.9974V32.4035ZM23.8798 34.5298C23.8885 33.6975 24.1166 33.2021 24.4055 32.9134C24.6929 32.6261 25.1804 32.4035 25.9974 32.4035V30.4035C24.8199 30.4035 23.7592 30.7317 22.9917 31.4988C22.2256 32.2644 21.8922 33.3269 21.8799 34.509L23.8798 34.5298ZM21.7987 36.6C22.2112 36.6 22.886 36.5801 23.3689 36.0975C23.8478 35.6189 23.8748 34.9463 23.8798 34.5313L21.8799 34.5075C21.8788 34.6003 21.8753 34.6723 21.8702 34.7283C21.8651 34.7849 21.8591 34.8161 21.8559 34.8295C21.8528 34.8425 21.8548 34.8285 21.8695 34.7993C21.8854 34.7676 21.9127 34.7252 21.9551 34.6829C21.9975 34.6405 22.0407 34.6125 22.0741 34.5958C22.105 34.5804 22.1208 34.5779 22.1099 34.5804C22.0985 34.5831 22.0692 34.5885 22.0144 34.5929C21.96 34.5973 21.8898 34.6 21.7987 34.6V36.6ZM21.6455 36.5972C21.6842 36.5983 21.7396 36.6 21.7987 36.6V34.6C21.773 34.6 21.746 34.5993 21.7031 34.598L21.6455 36.5972ZM21.5143 36.5965C21.5335 36.5949 21.5578 36.5947 21.6455 36.5972L21.7031 34.598C21.6298 34.5959 21.4962 34.5911 21.3483 34.6034L21.5143 36.5965ZM21.0771 36.9982C21.0791 36.852 21.1275 36.7709 21.1757 36.7224C21.2282 36.6697 21.3282 36.6092 21.4987 36.5977L21.3639 34.6023C20.1124 34.6868 19.0953 35.6197 19.0773 36.9715L21.0771 36.9982ZM21.0876 42.5864C21.0667 40.7263 21.0667 38.8543 21.0772 36.9905L19.0772 36.9792C19.0667 38.8502 19.0667 40.7341 19.0878 42.6089L21.0876 42.5864ZM21.535 42.9943C21.3351 42.9841 21.2288 42.9177 21.1799 42.8696C21.137 42.8274 21.0877 42.7517 21.0877 42.5977H19.0877C19.0877 43.2515 19.3271 43.8525 19.7775 44.2955C20.2219 44.7326 20.8137 44.96 21.4326 44.9917L21.535 42.9943ZM22.0086 42.993H21.4838V44.993H22.0086V42.993ZM23.889 44.8016C23.8683 44.4027 23.7721 43.8832 23.3628 43.4856C22.9561 43.0905 22.4366 43.0072 22.043 42.9936L21.9742 44.9924C22.0205 44.994 22.0533 44.9973 22.0751 45.0005C22.0969 45.0037 22.1038 45.0062 22.0996 45.0049C22.095 45.0034 22.0776 44.9975 22.0528 44.9834C22.0272 44.9689 21.9979 44.948 21.9692 44.9201C21.9404 44.8921 21.9183 44.8631 21.9025 44.8369C21.8871 44.8115 21.8802 44.7931 21.8781 44.7871C21.8763 44.7816 21.8787 44.787 21.8821 44.8075C21.8855 44.8279 21.8893 44.8595 21.8917 44.905L23.889 44.8016ZM23.8903 45.3254V44.8533H21.8903V45.3254H23.8903ZM25.7936 47.1895C25.1739 47.1857 24.7176 46.978 24.4162 46.6799C24.1147 46.3817 23.9016 45.927 23.8902 45.3069L21.8905 45.3439C21.9105 46.4234 22.2957 47.3955 23.0098 48.1018C23.724 48.8083 24.7005 49.1828 25.7813 49.1895L25.7936 47.1895ZM29.8735 47.1895C28.514 47.2 27.1546 47.2 25.7951 47.1895L25.7797 49.1895C27.1494 49.2 28.5191 49.2 29.8888 49.1895L29.8735 47.1895ZM32.6171 46.2921C31.801 46.8909 30.8953 47.1895 29.8811 47.1895V49.1895C31.3232 49.1895 32.6429 48.7537 33.8001 47.9047L32.6171 46.2921ZM33.6575 45.5122C33.3082 45.7746 32.9607 46.0358 32.6107 46.2968L33.8065 47.9C34.1598 47.6365 34.5102 47.3731 34.859 47.111L33.6575 45.5122ZM34.7101 44.7231C34.3567 44.9867 34.0063 45.2501 33.6575 45.5122L34.859 47.111C35.2083 46.8486 35.5559 46.5873 35.9058 46.3263L34.7101 44.7231ZM39.079 44.736C38.4189 44.2396 37.6963 43.9143 36.8955 43.9123C36.0949 43.9103 35.3719 44.2317 34.7118 44.7218L35.9041 46.3276C36.3461 45.9994 36.6571 45.9117 36.8904 45.9123C37.1236 45.9129 37.4349 46.002 37.8769 46.3345L39.079 44.736ZM40.0178 45.437C39.706 45.2023 39.3895 44.9641 39.0701 44.7294L37.8858 46.341C38.1943 46.5678 38.5017 46.7991 38.815 47.035L40.0178 45.437ZM41.2059 46.32C40.8088 46.0324 40.417 45.7376 40.0178 45.437L38.815 47.035C39.2119 47.3337 39.6183 47.6396 40.0327 47.9398L41.2059 46.32ZM43.1109 47.1066C42.4693 47.0771 41.8502 46.796 41.2135 46.3256L40.0251 47.9342C40.8369 48.5339 41.8343 49.0501 43.0191 49.1045L43.1109 47.1066ZM47.1939 47.1859C45.8127 47.1779 44.4566 47.1698 43.1119 47.1067L43.0181 49.1045C44.4107 49.1699 45.808 49.1779 47.1822 49.1859L47.1939 47.1859ZM47.7847 47.1895C47.5875 47.1882 47.3904 47.1871 47.1938 47.1859L47.1822 49.1859C47.3789 49.187 47.5752 49.1882 47.7714 49.1895L47.7847 47.1895ZM49.8641 45.1416C49.8599 45.9041 49.6351 46.3881 49.3389 46.6805C49.0425 46.9731 48.553 47.1937 47.7835 47.1895L47.7726 49.1895C48.9345 49.1958 49.9828 48.8551 50.7439 48.1039C51.5052 47.3524 51.8577 46.3099 51.8641 45.1525L49.8641 45.1416ZM52.0292 42.993C51.769 42.993 51.4914 43.0027 51.235 43.0543C50.9676 43.1082 50.6465 43.2223 50.3765 43.4901C50.1066 43.7577 49.9897 44.0776 49.9334 44.3439C49.8794 44.5994 49.8669 44.8765 49.8641 45.1364L51.864 45.1577C51.8652 45.0469 51.8685 44.9598 51.8738 44.8901C51.8792 44.8198 51.8857 44.7786 51.8902 44.7575C51.8992 44.7149 51.888 44.8079 51.7847 44.9103C51.6813 45.0128 51.5878 45.0234 51.6298 45.015C51.6507 45.0107 51.6917 45.0046 51.7619 45C51.8315 44.9954 51.9185 44.993 52.0292 44.993V42.993ZM52.6772 42.3669C52.6772 42.7581 52.5802 42.8615 52.5647 42.8767C52.5465 42.8947 52.4335 42.993 52.0292 42.993V44.993C52.7271 44.993 53.4381 44.8238 53.9683 44.3015C54.5013 43.7764 54.6772 43.0667 54.6772 42.3669H52.6772ZM52.6772 37.2261V42.3669H54.6772V37.2261H52.6772ZM52.0292 36.6C52.4335 36.6 52.5465 36.6983 52.5647 36.7163C52.5802 36.7315 52.6772 36.8349 52.6772 37.2261H54.6772C54.6772 36.5263 54.5013 35.8166 53.9683 35.2915C53.4381 34.7692 52.7271 34.6 52.0292 34.6V36.6ZM49.8641 34.4566C49.8669 34.7163 49.8794 34.9933 49.9337 35.2487C49.9904 35.5157 50.1082 35.8351 50.3793 36.1017C50.6491 36.3671 50.9686 36.4798 51.232 36.5336C51.4852 36.5854 51.7605 36.5972 52.0186 36.5999L52.0399 34.6001C51.9281 34.5989 51.84 34.5957 51.7691 34.5905C51.6976 34.5853 51.6553 34.5788 51.6328 34.5742C51.5868 34.5648 51.6787 34.5745 51.7819 34.676C51.8863 34.7787 51.8985 34.8732 51.89 34.833C51.8857 34.8127 51.8791 34.7722 51.8738 34.7022C51.8685 34.6329 51.8652 34.5461 51.864 34.4353L49.8641 34.4566ZM47.7781 32.4035C48.5508 32.4035 49.0392 32.6245 49.335 32.9165C49.6305 33.2082 49.8558 33.6911 49.8641 34.4569L51.864 34.435C51.8514 33.2809 51.4994 32.2426 50.74 31.4931C49.9808 30.7437 48.9367 30.4035 47.7781 30.4035V32.4035Z" fill="#E60000" mask="url(#path-2-inside-1_184_882)"/>
</g>
</g>
<defs>
<filter id="filter0_b_184_882" x="8.07031" y="11" width="57.6069" height="49.1974" filterUnits="userSpaceOnUse" color-interpolation-filters="sRGB">
<feFlood flood-opacity="0" result="BackgroundImageFix"/>
<feGaussianBlur in="BackgroundImageFix" stdDeviation="6"/>
<feComposite in2="SourceAlpha" operator="in" result="effect1_backgroundBlur_184_882"/>
<feBlend mode="normal" in="SourceGraphic" in2="effect1_backgroundBlur_184_882" result="shape"/>
</filter>
<clipPath id="clip0_184_882">
<rect width="33.6" height="25.2" fill="white" transform="translate(20.0667 23)"/>
</clipPath>
</defs>
</svg>
